<svg width="81" height="82" fill="none" xmlns="http://www.w3.org/2000/svg"><path fill-rule="evenodd" clip-rule="evenodd" d="M68.212 10.25H37.175c-.612 0-1.108.51-1.108 1.139v3.417h-2.219v-3.417c0-.629-.497-1.139-1.108-1.139h-6.651c-.612 0-1.109.51-1.109 1.139v3.417h-2.215v-3.417c0-.629-.497-1.139-1.109-1.139h-6.65c-.613 0-1.11.51-1.11 1.139v3.417H12.79c-.612 0-1.108.51-1.108 1.138v10.25h-1.11c-1.833 0-3.325 1.534-3.325 3.417v38.722c0 2.513 1.989 4.556 4.434 4.556h47.664c2.445 0 4.433-2.043 4.433-4.556 0-2.512-1.988-4.555-4.433-4.555H32.74c-1.223 0-2.217-1.022-2.217-2.278s.994-2.278 2.217-2.278h36.58c2.445 0 4.434-2.043 4.434-4.555V29.611c0-1.884-1.492-3.416-3.325-3.416H69.32V11.389c0-.629-.495-1.139-1.108-1.139zm3.325 19.361c0-.627-.496-1.139-1.108-1.139H69.32v2.278h1.109c.6 0 1.088-.491 1.108-1.102v-.037zm0 3.222v21.834c0 1.256-.995 2.277-2.217 2.277H32.74c-2.445 0-4.433 2.044-4.433 4.556 0 2.513 1.988 4.555 4.434 4.555h26.603c1.222 0 2.217 1.022 2.217 2.278 0 1.257-.995 2.278-2.217 2.278H11.68c-1.223 0-2.217-1.021-2.217-2.278v-35.5c.347.126.72.195 1.109.195h1.109V51.25c0 .63.496 1.139 1.108 1.139h55.423c.613 0 1.108-.51 1.108-1.14v-18.22h1.109a3.24 3.24 0 0 0 1.108-.195zM31.63 14.806h-4.434v-2.278h4.434v2.277zm-5.545 2.277H13.897v6.834h5.732c.457-1.326 1.69-2.278 3.135-2.278 1.445 0 2.678.952 3.135 2.278h5.732v.072c2.355-2.168 5.465-3.489 8.869-3.489 3.403 0 6.512 1.32 8.867 3.488v-.071h17.736v-11.39h-28.82v3.418c0 .628-.496 1.138-1.108 1.138H26.086zM11.68 28.473h-1.11c-.61 0-1.108.51-1.108 1.138 0 .628.498 1.139 1.109 1.139h1.109v-2.278zm2.216 21.638v-4.555h19.257a12.975 12.975 0 0 0 7.346 2.277c2.713 0 5.24-.839 7.346-2.277h19.257v4.555H13.897zm53.206-6.833V26.195H51.298a13.842 13.842 0 0 1 2.503 7.972c0 3.497-1.285 6.691-3.395 9.11h16.697zm-36.51 0H13.898V26.195h5.732c.457 1.325 1.69 2.277 3.135 2.277 1.445 0 2.678-.952 3.135-2.277h3.803a13.778 13.778 0 0 0-1.765 3.479 4.34 4.34 0 0 0-2.205.195c-2.307.833-3.523 3.44-2.712 5.81.641 1.87 2.358 3.043 4.187 3.043a4.3 4.3 0 0 0 .73-.062 13.761 13.761 0 0 0 2.657 4.618zm-4.125-11.26c.294-.106.606-.146.914-.121a14.077 14.077 0 0 0 0 4.54 2.15 2.15 0 0 1-1.136-.217 2.245 2.245 0 0 1-1.133-1.298 2.315 2.315 0 0 1 .092-1.74 2.223 2.223 0 0 1 1.263-1.164zm-5.92-19.49v2.277h-4.434v-2.277h4.434zm36.58 2.278h6.65c.614 0 1.109.51 1.109 1.139V20.5c0 .629-.495 1.139-1.108 1.139h-6.651c-.613 0-1.109-.51-1.109-1.139v-4.556c0-.628.496-1.138 1.109-1.138zm1.108 4.555h4.434v-2.278h-4.434v2.278zM40.5 45.556c-6.112 0-11.085-5.11-11.085-11.39 0-6.279 4.973-11.388 11.085-11.388 6.112 0 11.084 5.109 11.084 11.389 0 6.28-4.972 11.389-11.084 11.389zm-18.844-20.5c0 .627.497 1.139 1.108 1.139.61 0 1.108-.512 1.108-1.14 0-.627-.497-1.138-1.108-1.138-.61 0-1.108.511-1.108 1.139zm34.363 10.25c0-1.484.926-2.75 2.215-3.221v-2.474c0-.628.496-1.139 1.109-1.139s1.108.51 1.108 1.14v2.471c1.291.47 2.22 1.737 2.22 3.223 0 1.883-1.493 3.416-3.326 3.416-1.834 0-3.326-1.533-3.326-3.416zm2.217 0c0 .627.497 1.139 1.109 1.139s1.108-.512 1.108-1.14c0-.627-.496-1.138-1.108-1.138-.612 0-1.109.511-1.109 1.139zm-26.603-1.14c0-5.023 3.978-9.11 8.868-9.11 4.889 0 8.867 4.087 8.867 9.11 0 5.025-3.978 9.112-8.867 9.112-4.89 0-8.868-4.087-8.868-9.111zm2.217 0c0 3.77 2.983 6.834 6.65 6.834 3.668 0 6.651-3.065 6.651-6.833 0-3.769-2.983-6.834-6.65-6.834-3.668 0-6.651 3.065-6.651 6.834zm-2.217-14.805h-3.326v2.278h3.326v-2.278z" fill="#A4A4A4"/></svg>