<svg width="71" height="71" fill="none" xmlns="http://www.w3.org/2000/svg"><path fill-rule="evenodd" clip-rule="evenodd" d="M65.6 18.981l-2.324-2.36h5.275v2.36H65.6zm2.325 2.36l.534.543.092.094v-.636h-.626zm1.806-7.081h-8.78L48.715 1.834l-.005-.005-.008-.008a.348.348 0 0 1-.013-.014c-2.303-2.3-6.047-2.296-8.34-.001L27.719 14.26H7.762c-4.23 0-7.672 3.442-7.672 7.672 0 .199.008.396.023.59H.09v40.723c0 4.23 3.442 7.672 7.672 7.672H65.01a1.18 1.18 0 0 0 1.18-1.18V57.932h3.541a1.248 1.248 0 0 0 .127-.007 1.18 1.18 0 0 0 1.053-1.174V15.44a1.18 1.18 0 0 0-1.18-1.18zM2.537 58.897l-.086.016v2.283l.802-.624c.405.52.896.96 1.46 1.302l-1.225 2.017a7.773 7.773 0 0 1-1.037-.752v.105a5.318 5.318 0 0 0 5.312 5.312h56.066V57.933H47.303c-5.206 0-9.442-4.236-9.442-9.443s4.236-9.443 9.442-9.443H63.83v-9.443H7.762a7.646 7.646 0 0 1-5.311-2.14v.965a5.23 5.23 0 0 0 .086.962l-.086.016v2.281l.802-.624a5.37 5.37 0 0 0 1.46 1.301l-1.225 2.017a7.767 7.767 0 0 1-1.037-.752v24.306c-.001.324.028.648.086.961zm12.014-31.653l5.984-5.9H8.942a5.322 5.322 0 0 0-5.17 4.09 5.3 5.3 0 0 0 3.99 1.81h6.789zm-12.1-5.312c0 .198.01.394.032.586a7.673 7.673 0 0 1 6.459-3.535h13.987l2.396-2.363H7.762a5.318 5.318 0 0 0-5.311 5.312zM42.01 3.481L17.914 27.244H42.09l3.195-3.195 1.67 1.669-1.526 1.526h6.313a5.912 5.912 0 0 1 5.783-4.72 5.91 5.91 0 0 1 5.783 4.72h1.702c.653 0 1.18.529 1.18 1.18v.7l.596-.592a3.549 3.549 0 0 0-.005-4.988L47.016 3.474l-.002-.002-.002-.002-.004-.004-.005-.004a3.545 3.545 0 0 0-4.991.019zm18.852 23.763a3.548 3.548 0 0 0-3.339-2.36c-1.538 0-2.85.986-3.338 2.36h6.677zm5.327 11.803v-6.593l2.264-2.254.034-.034.063-.065v8.946h-2.36zm2.36 2.361H47.303a7.09 7.09 0 0 0-7.082 7.082 7.09 7.09 0 0 0 7.082 7.082H68.55V41.408zm-21.247 2.36a4.726 4.726 0 0 0-4.721 4.722 4.726 4.726 0 0 0 4.721 4.721 4.726 4.726 0 0 0 4.722-4.721 4.726 4.726 0 0 0-4.722-4.721zm0 7.083a2.363 2.363 0 0 1-2.36-2.361 2.363 2.363 0 0 1 2.36-2.36 2.363 2.363 0 0 1 2.36 2.36 2.363 2.363 0 0 1-2.36 2.36zM43.706 8.71L33.081 19.333l1.67 1.669L45.375 10.38l-1.67-1.67zm-2.36 9.437l5.902-5.901 1.669 1.67-5.9 5.9-1.67-1.67zM18.3 33.145h-2.396v2.361H18.3v-2.36zm7.19 0h2.396v2.361H25.49v-2.36zm-2.396 0h-2.396v2.361h2.396v-2.36zm-9.584 0h-2.396v2.361h2.396v-2.36zm-7.397 2.237l.428-2.322c.224.041.45.055.679.069.1.006.199.012.298.02l1.2-.004v2.361l-1.197.004h-.012a7.71 7.71 0 0 1-1.396-.128zm36.15-2.237h-2.397v2.361h2.396v-2.36zm-11.98 0h2.395v2.361h-2.396v-2.36zm26.355 0h-2.395v2.361h2.395v-2.36zm2.398 0h2.396v2.361h-2.396v-2.36zm-7.188 0H49.45v2.361h2.397v-2.36zm-7.189 0h2.395v2.361h-2.395v-2.36zm-7.189 0h-2.395v2.361h2.395v-2.36zm-7.188 29.51h2.396v2.36h-2.396v-2.36zm-2.396 0H25.49v2.36h2.396v-2.36zm-7.188 0h2.396v2.36h-2.396v-2.36zM6.114 64.89l.426-2.322c.322.06.65.089.977.089l1.2-.004v2.361l-1.2.004c-.469 0-.94-.043-1.403-.128zm7.395-2.237h-2.396v2.36h2.396v-2.36zm2.396 0h2.396v2.36h-2.396v-2.36zm40.732 0h-2.395v2.36h2.395v-2.36zm-7.187 0h2.397v2.36H49.45v-2.36zm11.98 0h-2.395v2.36h2.396v-2.36zm-26.355 0h2.396v2.36h-2.396v-2.36zm7.186 0h-2.396v2.36h2.396v-2.36zm2.397 0h2.395v2.36h-2.395v-2.36zm7.714-45.69l-4.722 4.722 1.67 1.67 4.721-4.722-1.67-1.67z" fill="#B2B8BC"/></svg>