<svg width="71" height="71" fill="none" xmlns="http://www.w3.org/2000/svg"><path fill-rule="evenodd" clip-rule="evenodd" d="M20.07 0C9.003 0 0 9.003 0 20.07v2.36a1.182 1.182 0 0 0 2.015.837 5.512 5.512 0 0 1 7.777 0c.46.46 1.207.46 1.668 0a5.513 5.513 0 0 1 7.428-.32v28.997H1.18A1.18 1.18 0 0 0 0 53.125v16.528c0 .653.529 1.18 1.18 1.18h4.723a1.18 1.18 0 0 0 1.18-1.18V59.028h11.805v11.805h2.36V59.028H63.75v10.625c0 .652.528 1.18 1.18 1.18h4.723a1.18 1.18 0 0 0 1.18-1.18V53.125a1.18 1.18 0 0 0-1.18-1.18h-2.78l-4.15-9.342 3.009-2.778a1.184 1.184 0 0 0 .033-1.702l-3.542-3.542a1.18 1.18 0 0 0-1.642-.026l-18.549 17.39H21.25V22.95a5.513 5.513 0 0 1 7.432.317c.46.46 1.207.46 1.668 0a5.51 5.51 0 0 1 7.775 0 1.185 1.185 0 0 0 1.287.255 1.18 1.18 0 0 0 .728-1.091V20.07C40.14 9.003 31.136 0 20.07 0zm17.708 20.138a7.89 7.89 0 0 0-8.264.733 7.85 7.85 0 0 0-4.722-1.571 7.85 7.85 0 0 0-4.722 1.571 7.887 7.887 0 0 0-9.445 0 7.887 7.887 0 0 0-8.264-.733v-.069c0-9.764 7.944-17.708 17.709-17.708 9.764 0 17.708 7.944 17.708 17.709v.068zM60.89 44.294l-8.288 7.65H64.29l-3.4-7.65zm-11.769 7.65h-3.637L61.361 37.06l1.865 1.864-14.105 13.02zm19.351 7.084h-2.361v9.444h2.361v-9.444zm0-2.361v-2.361H2.362v2.36h66.11zM2.362 68.472v-9.444h2.36v9.444h-2.36zm48.402-55.486a7.09 7.09 0 0 1 7.084-7.083 7.09 7.09 0 0 1 7.083 7.083 7.09 7.09 0 0 1-7.083 7.084 7.09 7.09 0 0 1-7.084-7.084zm2.362 0a4.727 4.727 0 0 0 4.722 4.722 4.727 4.727 0 0 0 4.722-4.722 4.727 4.727 0 0 0-4.722-4.722 4.727 4.727 0 0 0-4.722 4.722zM59.028 0h-2.361v3.542h2.36V0zm8.264 11.806h3.541v2.36h-3.541v-2.36zm-18.89 0h-3.541v2.36h3.541v-2.36zm15.29-6.334l2.504-2.503 1.67 1.67-2.504 2.502-1.67-1.67zm-13.36 13.366l-2.503 2.502 1.67 1.67L52 20.507l-1.67-1.67zm13.36 1.664l1.67-1.67 2.502 2.503-1.669 1.67-2.503-2.503zM49.494 2.962l-1.67 1.67 2.504 2.502 1.669-1.67-2.503-2.502zm7.173 19.468h2.36v3.542h-2.36V22.43z" fill="#B2B8BC"/></svg>