<svg width="71" height="71" fill="none" xmlns="http://www.w3.org/2000/svg"><path fill-rule="evenodd" clip-rule="evenodd" d="M11.89.083h14.166a3.546 3.546 0 0 1 3.542 3.542 3.546 3.546 0 0 1-3.542 3.542h-1.18v8.264h7.082c2.9 0 5.317 2.1 5.811 4.86.41-.09.836-.138 1.273-.138h10.625a5.91 5.91 0 0 1 5.903 5.903v3.541h9.444a5.91 5.91 0 0 1 5.903 5.903v23.611c0 1.944-.944 3.67-2.398 4.747a4.119 4.119 0 0 1 1.218 2.927 4.137 4.137 0 0 1-4.132 4.132 4.136 4.136 0 0 1-4.132-4.132c0-.633.143-1.234.399-1.771h-25.59c.255.537.399 1.137.399 1.77a4.137 4.137 0 0 1-4.132 4.133 4.136 4.136 0 0 1-4.132-4.132c0-.633.143-1.234.399-1.771h-1.98c.256.537.399 1.137.399 1.77a4.136 4.136 0 0 1-4.132 4.133 4.136 4.136 0 0 1-4.132-4.132c0-.633.143-1.234.399-1.771H9.128c.256.537.399 1.137.399 1.77a4.137 4.137 0 0 1-4.132 4.133 4.136 4.136 0 0 1-4.132-4.132 4.12 4.12 0 0 1 1.218-2.927A5.898 5.898 0 0 1 .083 59.11V21.333a5.91 5.91 0 0 1 5.903-5.902h7.083V7.167h-1.18a3.546 3.546 0 0 1-3.541-3.542A3.546 3.546 0 0 1 11.889.083zm50.763 31.875h-2.36v14.366a8.529 8.529 0 0 1 2.36.956V31.958zm2.361 17.503V31.958a3.546 3.546 0 0 1 3.542 3.542v23.611a3.546 3.546 0 0 1-3.542 3.542v-6.774a5 5 0 0 0 .843-1.562c.534-1.638.17-3.39-.843-4.856zm-7.083-3.351V31.958H30.778v14.963l2.956 1.724c.538.316.739.992.461 1.55l-2.36 4.722a1.185 1.185 0 0 1-1.057.652v7.084h27.151V57.91a8.621 8.621 0 0 1-.634-.18c-1.75-.573-3.227-1.667-4.156-3.084-.984-1.5-1.247-3.175-.742-4.722.732-2.242 2.952-3.664 5.534-3.814zm-29.448 8.279l-2.428-1.457v9.72h2.362V54.39h.066zm-4.79-2.874l-3.54-2.124v9.72a3.546 3.546 0 0 0 3.54 3.542V51.515zm-3.54-4.878L30.29 52.72l1.296-2.592-11.434-6.67v3.179zm0-5.914V35.5a3.546 3.546 0 0 1 3.54-3.542v10.83l-3.54-2.065zm5.902 3.443V31.958h2.361v13.586l-2.361-1.378zm36.597 18.487h-2.361v-4.52a7.252 7.252 0 0 0 2.361-.522v5.042zM35.5 21.333v.004a5.898 5.898 0 0 0-2.36 4.719v3.541h-2.362v-7.083h-2.361v7.083h-4.723v-7.083h-2.36v7.576a5.912 5.912 0 0 0-3.542 5.41v23.611a5.87 5.87 0 0 0 1.183 3.542H5.986a3.546 3.546 0 0 1-3.542-3.542V38.628l4.723-2.099V56.75h2.36V35.5h-.045l2.887-1.283a1.18 1.18 0 0 0 .617-1.517l-2.362-5.903a1.18 1.18 0 0 0-1.096-.743v-3.54H7.167v4.45l-4.723 2.024v-7.655a3.546 3.546 0 0 1 3.542-3.541h25.972a3.546 3.546 0 0 1 3.542 3.541zm2.36 8.264H35.5v-3.541a3.546 3.546 0 0 1 3.542-3.542h10.625a3.546 3.546 0 0 1 3.542 3.542v3.541h-2.362v-3.542a1.18 1.18 0 0 0-1.181-1.18H39.041a1.18 1.18 0 0 0-1.18 1.18v3.542zm10.626 0v-2.361h-8.264v2.361h8.264zM32.56 65.014h-.023a1.773 1.773 0 0 0-1.76 1.77c0 .977.795 1.772 1.772 1.772.976 0 1.77-.795 1.77-1.771 0-.973-.788-1.765-1.759-1.771zM2.444 36.044v-4.488l6.437-2.758 1.49 3.723-7.927 3.523zm20.07-20.613V7.167H15.43v8.264h7.084zM11.89 4.805h14.167c.65 0 1.18-.53 1.18-1.18 0-.65-.53-1.18-1.18-1.18H11.89c-.65 0-1.18.53-1.18 1.18 0 .65.53 1.18 1.18 1.18zm-6.494 63.75a1.772 1.772 0 0 1-1.771-1.77 1.772 1.772 0 0 1 3.542-.001c0 .977-.795 1.772-1.771 1.772zm8.855-46.041h2.361V56.75H14.25V22.514zm29.294 12.3l5.903 8.264a1.18 1.18 0 0 1-.96 1.866H36.68a1.182 1.182 0 0 1-.961-1.867l5.903-8.263c.443-.621 1.478-.621 1.92 0zm-.96 2.718l-3.609 5.051h7.217l-3.608-5.051zM63.61 53.585c-.604 1.856-3.11 2.707-5.582 1.9-1.245-.407-2.28-1.165-2.916-2.134-.582-.888-.75-1.844-.473-2.694h.002c.45-1.38 1.951-2.204 3.708-2.204.605 0 1.24.097 1.872.303 2.475.81 3.994 2.974 3.39 4.829zm-42.278 13.2c0 .976.795 1.77 1.771 1.77.976 0 1.77-.794 1.77-1.77 0-.977-.794-1.771-1.77-1.771s-1.77.794-1.77 1.77zm44.273 1.77a1.772 1.772 0 0 1-1.771-1.77 1.772 1.772 0 0 1 3.542-.001c0 .977-.795 1.772-1.771 1.772z" fill="#B2B8BC"/></svg>