<svg width="71" height="71" fill="none" xmlns="http://www.w3.org/2000/svg"><path fill-rule="evenodd" clip-rule="evenodd" d="M39.678 1.827A5.859 5.859 0 0 0 35.512.083h-.022a5.855 5.855 0 0 0-4.157 1.715 5.863 5.863 0 0 0-1.744 4.167 5.92 5.92 0 0 0 2.361 4.74v3.558H4.805c-.372 0-.723.175-.944.472L.32 19.456a1.18 1.18 0 0 0 0 1.417l3.54 4.72c.224.298.573.473.945.473H31.95v7.083H9.526c-.372 0-.722.175-.944.472L5.04 38.342a1.177 1.177 0 0 0 0 1.415l3.54 4.721c.224.298.573.472.945.472H31.95v24.786c0 .653.529 1.18 1.18 1.18h4.721a1.18 1.18 0 0 0 1.18-1.18V55.573h22.427c.37 0 .721-.176.944-.473l3.541-4.721a1.178 1.178 0 0 0 0-1.416l-3.54-4.72a1.181 1.181 0 0 0-.945-.473H39.032v-8.262h27.147c.37 0 .721-.175.944-.472l3.541-4.721a1.179 1.179 0 0 0 0-1.416l-3.54-4.722a1.181 1.181 0 0 0-.945-.472H39.032v-13a5.927 5.927 0 0 0 2.36-4.7 5.862 5.862 0 0 0-1.714-4.178zM34.312 43.77c0 .02 0 .038-.002.057v24.728h2.361V10.073c0-.421.224-.812.59-1.022a3.55 3.55 0 0 0 1.77-3.053 3.523 3.523 0 0 0-1.027-2.508 3.518 3.518 0 0 0-2.502-1.046h-.013c-.94 0-1.825.365-2.493 1.028a3.517 3.517 0 0 0-1.046 2.5 3.547 3.547 0 0 0 1.77 3.078c.365.211.59.6.59 1.022v5.315l.002.056v9.443c0 .019 0 .037-.002.056v9.33l.002.057v9.442zm-24.196-8.26H31.95v7.08H10.116L7.46 39.05l2.656-3.54zM5.395 16.624H31.95v7.081H5.395l-2.656-3.54 2.656-3.541zm33.638 16.524h26.556l2.656-3.541-2.656-3.541H39.033v7.082zm0 20.064h21.835l2.656-3.54-2.656-3.541H39.033v7.081z" fill="#fff"/></svg>