<svg width="71" height="71" viewBox="0 0 56 71" fill="none" xmlns="http://www.w3.org/2000/svg"><path fill-rule="evenodd" clip-rule="evenodd" d="M31.875 0h-8.264a4.727 4.727 0 0 0-4.722 4.722v5.903c0 1.328.441 2.554 1.184 3.542H16.22a6.464 6.464 0 0 0 1.488-4.132 6.5 6.5 0 0 0-6.493-6.493 6.5 6.5 0 0 0-6.493 6.493A6.48 6.48 0 0 0 6.92 14.9a4.723 4.723 0 0 0-2.197 3.989v5.903H3.306A3.31 3.31 0 0 0 0 28.097v5.195a3.31 3.31 0 0 0 3.306 3.305h1.417a4.727 4.727 0 0 0 4.722 4.722h3.541c.86 0 1.667-.23 2.362-.633v11.673l-9.881 4.39a1.168 1.168 0 0 0-.093.042L.652 59.15a1.184 1.184 0 0 0-.527 1.586l4.073 8.132a3.52 3.52 0 0 0 3.17 1.964h.614a3.516 3.516 0 0 0 3.168-1.966 3.555 3.555 0 0 0 0-3.154l-1.27-2.541 10.1-4.235a5.895 5.895 0 0 0 3.631-5.423v-5.241c0-.58.471-1.051 1.039-1.051.386.004.737.216.931.58l9.975 17.686 2.347 4.692a1.182 1.182 0 0 0 1.584.528l7.083-3.541.003-.002a3.834 3.834 0 0 0 1.704-5.127 3.83 3.83 0 0 0-5.124-1.706l-1.306.653-9.972-19.943v-7.156a7.353 7.353 0 0 0 4.5 1.53h.02c1.96 0 3.87-.798 5.24-2.187l2.424-2.423 9.096 39.116 2.299-.534-9.43-40.548 1.443-1.443a4.132 4.132 0 0 0 .382-5.369c-.12-.16-.252-.31-.392-.45a4.065 4.065 0 0 0-2.887-1.19h-.015c-.165 0-.328.011-.489.03l-.418-1.796-2.298.535.522 2.244c-.07.062-.14.127-.206.194l-4.99 4.989-4.8-5.762v-.752a5.907 5.907 0 0 0-3.032-5.157 5.89 5.89 0 0 0 1.852-4.288V5.913a5.462 5.462 0 0 0-.03-.627 4.725 4.725 0 0 0 2.39-4.105A1.18 1.18 0 0 0 31.876 0zM11.24 14.167h-.047a4.137 4.137 0 0 1-4.108-4.132 4.137 4.137 0 0 1 4.132-4.132 4.136 4.136 0 0 1 4.132 4.132 4.138 4.138 0 0 1-4.109 4.132zm5.838 2.36h.843l-.638.399a4.682 4.682 0 0 0-.205-.398zm28.72 9.2l-.402.404-.787-3.381a1.722 1.722 0 0 1 1.352.695 1.757 1.757 0 0 1-.162 2.283zm-2.368 2.37l-.93-3.996-5.067 5.066a1.185 1.185 0 0 1-1.742-.079l-3.815-4.577v5.824l.315.464a5.014 5.014 0 0 0 4.19 2.257h.014a5.04 5.04 0 0 0 3.566-1.49l3.469-3.47zm-20.545-11.57h-.009a1.75 1.75 0 0 0-.97.297l-8.696 5.427a3.202 3.202 0 0 0-1.404 2.668 3.218 3.218 0 0 0 1.434 2.692l9.92 7.02c.754.504 1.803.323 2.363-.428.32-.478.41-.947.317-1.407a1.75 1.75 0 0 0-.754-1.116l-8.067-5.8a1.18 1.18 0 0 1 .074-1.967l6.896-4.218c.367-.282.604-.694.664-1.155a1.736 1.736 0 0 0-.349-1.292 1.773 1.773 0 0 0-1.419-.72zm6.63 3.543a3.548 3.548 0 0 0-2.862-3.477c.32.692.442 1.468.34 2.25a4.079 4.079 0 0 1-1.083 2.29l.013.006-3.255 5.894 3.757 2.702a4.068 4.068 0 0 1 1.727 2.586 4.093 4.093 0 0 1-.74 3.295 4.105 4.105 0 0 1-3.301 1.656 4.095 4.095 0 0 1-2.288-.697L19.33 34.81l-1.621 3.242v2.086h11.806v-20.07zm-8.777 5.575l.992-1.797L19.841 25l.896.644zm-8.834 3.911l3.445 2.438v2.242H7.085V18.89a2.364 2.364 0 0 1 2.361-2.361h3.542c.969 0 1.84.594 2.193 1.489l.034.199-3.286 2.05a5.57 5.57 0 0 0-2.485 4.652 5.559 5.559 0 0 0 2.459 4.638zm-4.818 7.041a2.364 2.364 0 0 0 2.361 2.361h3.542a2.364 2.364 0 0 0 2.36-2.286v-.075H7.085zM2.767 60.736l2.608-1.305.872 1.743 2.791 5.592c.164.33.164.722 0 1.051-.2.404-.605.655-1.056.655h-.614a1.173 1.173 0 0 1-1.057-.66l-3.544-7.076zM29.964 42.5H17.708v10.625c0 .467-.275.889-.701 1.079l-9.496 4.22 1.315 2.63 10.244-4.295a3.539 3.539 0 0 0 2.18-3.252v-5.234a3.415 3.415 0 0 1 3.412-3.412 3.417 3.417 0 0 1 2.989 1.805l9.422 16.705 2.662-1.33-9.77-19.541zM21.252 5.892v.701l2.705-2.705a1.18 1.18 0 0 1 .835-.346h3.542a2.36 2.36 0 0 0 2.043-1.181h-6.766a2.364 2.364 0 0 0-2.36 2.361v.281l.112.03a3.182 3.182 0 0 0-.111.86zm0 4.733v-.693l4.029-4.03h3.054v4.723a3.546 3.546 0 0 1-3.541 3.542 3.546 3.546 0 0 1-3.542-3.542zM3.306 34.236h1.416v-7.083H3.306a.946.946 0 0 0-.945.944v5.195c0 .52.424.944.945.944zm36.18 33.833l6.028-3.014a1.468 1.468 0 0 0 .651-1.96 1.466 1.466 0 0 0-1.958-.65l-6.025 3.013 1.305 2.61zM11.217 8.264c-.976 0-1.77.794-1.77 1.77 0 .977.794 1.771 1.77 1.771.977 0 1.771-.794 1.771-1.77 0-.977-.794-1.771-1.77-1.771zm0 2.361a.59.59 0 1 1 0-1.181.59.59 0 0 1 0 1.181z" fill="#fff"/></svg>