<svg width="71" height="71" viewBox="0 0 71 73" fill="none" xmlns="http://www.w3.org/2000/svg"><path fill-rule="evenodd" clip-rule="evenodd" d="M24.918 1.703c18.634-5.83 38.532 4.581 44.365 23.213 2.825 9.025 1.967 18.61-2.418 26.99-4.385 8.379-11.77 14.55-20.795 17.374a35.066 35.066 0 0 1-10.507 1.607 35.6 35.6 0 0 1-12.28-2.19c-4.918 2.254-9.257 3.386-12.826 3.386-3.2 0-5.78-.91-7.606-2.736-6.54-6.539-.943-22.991 13.61-40.008l1.824 1.56C5.015 46.413-.89 62.212 4.548 67.65c2.798 2.797 8.43 2.684 15.674-.244A35.28 35.28 0 0 1 5.788 54.76l2.013-1.305c8.03 12.38 23.469 17.946 37.553 13.539 8.415-2.634 15.3-8.386 19.386-16.2 2.795-5.341 4.053-11.21 3.727-17.076H63.67a1.2 1.2 0 0 1-1.041-.605l-4.452-7.791h-5.86l-2.042 3.064a1.2 1.2 0 0 1-.998.534H44.48a1.2 1.2 0 0 1-1.2-1.2v-8.395a1.2 1.2 0 0 1 1.2-1.2h6.7l4.446-4.446c.225-.225.529-.351.848-.351h3.501a33.03 33.03 0 0 0-9.18-7.081 33.01 33.01 0 0 0-11.113-3.512v.998a1.2 1.2 0 0 1-.909 1.163l-4.597 1.15-3.426 2.283a1.2 1.2 0 0 1-1.2.076l-6.758-3.38c-7.05 2.934-12.623 8.119-16.134 14.438.192.1.356.252.47.444l3.598 5.997a1.2 1.2 0 0 1-.18 1.465L7.3 30.615v4.301a1.2 1.2 0 0 1-1.2 1.2H2.488a32.911 32.911 0 0 0 1.505 9.236l-2.29.717C-4.128 27.438 6.285 7.535 24.918 1.703zm.998 2.201L30 5.947l3.019-2.012c.114-.076.24-.132.374-.166l3.89-.973v-.28a33.004 33.004 0 0 0-11.368 1.388zM2.532 33.717a33.056 33.056 0 0 1 2.94-11.909l2.717 4.526-2.936 2.937c-.226.224-.352.53-.352.848v3.598H2.532zm64.463-8.084a33.407 33.407 0 0 1 1.25 5.685h-3.88l-4.452-7.791a1.2 1.2 0 0 0-1.04-.605h-7.197c-.4 0-.775.2-.998.534l-2.042 3.064h-2.957v-5.997h5.997c.32 0 .623-.126.848-.351l4.446-4.446h4.98a33.046 33.046 0 0 1 5.045 9.907zm-49.76-12.151l9.387 2.816-1.596 1.596-8.448-3.755.657-.657zm-3.227 2.14l9.2 4.09-1.883 1.883-4.14-1.035a1.199 1.199 0 0 0-1.138.315l-2.4 2.399a1.198 1.198 0 0 0 .231 1.876l5.74 3.444 3.445 5.74a1.198 1.198 0 0 0 1.877.232l2.399-2.399c.297-.298.417-.73.315-1.14l-1.034-4.134 1.873-1.854 3.946 9.153a1.2 1.2 0 0 0 1.895.425l2.543-2.243a1.2 1.2 0 0 0 .356-1.24l-3.377-11.405 3.097-3.066c1.763-1.846 2.733-4.271 2.731-6.933a1.2 1.2 0 0 0-1.2-1.2h-.002a9.816 9.816 0 0 0-6.986 2.895l-2.947 2.947-11.311-3.393a1.198 1.198 0 0 0-1.192.3l-2.4 2.4a1.2 1.2 0 0 0 .362 1.944zm17.913 6.023l-1.597 1.581 3.664 8.498.728-.643-2.795-9.436zm-7.475 4.023a1.2 1.2 0 0 0-.32 1.143l1.035 4.139-.833.832-2.808-4.68a1.194 1.194 0 0 0-.41-.411l-4.68-2.808.832-.832 4.139 1.035a1.2 1.2 0 0 0 1.14-.316l10.65-10.65a7.42 7.42 0 0 1 3.998-2.081 7.395 7.395 0 0 1-1.949 3.942L24.446 25.668zM62.47 40.913a1.2 1.2 0 0 1 .997 1.864l-4.596 6.894v4.434c0 .32-.126.624-.351.848l-4.798 4.798a1.2 1.2 0 0 1-.849.352h-5.997c-.663 0-1.2-.536-1.2-1.199V45.711H42.08c-.663 0-1.2-.536-1.2-1.2v-9.595a1.2 1.2 0 0 1 1.2-1.2h11.994a1.2 1.2 0 0 1 1.073.664l3.267 6.533h4.057zm-5.999 8.396c0-.236.071-.469.202-.666l3.555-5.331h-2.557a1.2 1.2 0 0 1-1.074-.663l-3.267-6.533H43.278v7.196h3.598c.663 0 1.2.536 1.2 1.2v13.193h4.302l4.094-4.095v-4.301zm-28.288-5.997h6.7a1.2 1.2 0 0 1 1.199 1.2v5.996a1.2 1.2 0 0 1-.45.937l-5.547 4.437v3.022a1.2 1.2 0 0 1-.48.96l-4.797 3.598a1.195 1.195 0 0 1-1.256.113 1.2 1.2 0 0 1-.663-1.073V50.508h-4.798a1.2 1.2 0 0 1-1.2-1.2v-8.395a1.2 1.2 0 0 1 1.2-1.2h5.997c.318 0 .624.127.848.352l3.247 3.247zm-.047 11.057l5.547-4.436V45.71h-5.997c-.318 0-.624-.126-.848-.352l-3.247-3.246h-4.3v5.997h4.797a1.2 1.2 0 0 1 1.2 1.199v10.794l2.398-1.799v-2.998a1.2 1.2 0 0 1 .45-.937z" fill="#fff"/></svg>