<svg width="81" height="82" fill="none" xmlns="http://www.w3.org/2000/svg"><path fill-rule="evenodd" clip-rule="evenodd" d="M40.995 6.953l6.65 3.417c.377.193.614.587.614 1.019 0 .431-.237.825-.613 1.02l-6.038 3.1v4.659l6.623 10.694 2.403-4.115c.196-.335.544-.543.925-.552.373-.042.738.18.947.506l5.301 8.17 1.743-2.506a1.1 1.1 0 0 1 .989-.474c.388.031.73.269.904.627l9.29 19.088 1.13-1.161a1.087 1.087 0 0 1 1.208-.247c.414.175.684.59.684 1.052v22.778c0 .628-.496 1.139-1.109 1.139H8.355c-.612 0-1.109-.51-1.109-1.14V46.696c0-.248.078-.487.222-.684l3.325-4.555c.204-.28.522-.45.864-.456.331-.009.665.147.881.418l2.583 3.244 13.413-18.021c.209-.28.533-.445.877-.448h.005a1.1 1.1 0 0 1 .875.44l2.462 3.252 6.638-9.743V7.972c0-.395.2-.76.526-.969a1.086 1.086 0 0 1 1.078-.05zm8.907 65.936h21.636v-18.89l-4.276 4.393 3.108 9.581c.114.348.057.73-.152 1.027a1.102 1.102 0 0 1-.899.472h-2.217v3.417h-2.217v-3.417h-2.216c-.356 0-.69-.175-.9-.472a1.164 1.164 0 0 1-.152-1.027l3.081-9.497-4.163-3.422-2.14 2.2 2 6.164c.113.347.056.73-.153 1.026a1.102 1.102 0 0 1-.899.473h-6.65c-.356 0-.69-.176-.9-.473a1.165 1.165 0 0 1-.152-1.026l.44-1.355-6.107 5.782 3.928 5.044zm5.064-19.721l-1.435 4.424-8.945 8.47-3.22-4.135a1.092 1.092 0 0 0-1.65-.093l-2.48 2.548-4.305-5.16h.918c.356 0 .69-.176.899-.472.208-.297.266-.68.153-1.027l-3.326-10.25a1.11 1.11 0 0 0-1.052-.779c-.477 0-.9.314-1.052.78l-1.589 4.897-1.564-1.92c-.213-.262-.51-.388-.862-.408a1.103 1.103 0 0 0-.853.428l-2.4 3.085-5.639-7.082 12.86-17.277 6.061 8.008-2.487 3.066 1.703 1.46 4.69-5.785 4.69 5.783 1.705-1.458-5.543-6.833c-.421-.52-1.281-.52-1.702 0l-1.603 1.976-2.76-3.648 6.278-9.216 6.868 11.088c.205.333.55.517.949.528.385-.006.738-.214.937-.553l2.425-4.151 4.795 7.39-2.422 3.485 1.803 1.324 3.21-4.616.136-.094-.034-.053 1.16-1.67 8.797 18.076-3.166 3.253-4.768-3.919a1.087 1.087 0 0 0-1.476.085l-2.06 2.115-.541-1.67a1.108 1.108 0 0 0-1.05-.78c-.479 0-.901.314-1.053.78zm-23.333 9.47v-1.471l4.03 4.831-1.49 1.53 1.568 1.61 4.667-4.794 6.653 8.545H27.997l-3.073-9.471a1.11 1.11 0 0 0-1.052-.78c-.477 0-.9.314-1.052.78l-3.072 9.471H9.463V47.074l2.255-3.089 9.07 11.39-2.31 2.973-1.312-4.041a1.11 1.11 0 0 0-1.052-.78c-.478 0-.9.314-1.052.78l-3.325 10.25c-.112.346-.056.729.153 1.026.208.297.543.473.899.473h2.215v3.416h2.217v-3.416h2.219c.355 0 .69-.177.899-.473.208-.296.266-.679.152-1.026l-1.178-3.634 6.175-7.942 1.57 1.929-.912 2.813a1.17 1.17 0 0 0 .153 1.027c.208.297.543.472.9.472h2.217v3.417h2.217zm9.975-49.675l3.064-1.574-3.064-1.574v3.148zM16.114 58.268l-1.788 5.51h3.576l-1.788-5.51zm14.41-6.833l-1.789 5.51h3.576l-1.788-5.51zm-6.652 15.944l-1.788 5.51h3.576l-1.788-5.51zm33.255-2.462H54.91v3.416h2.217v-3.416zm-1.109-7.788l-1.787 5.51h3.575l-1.788-5.51zm8.19 10.066l1.786-5.51 1.788 5.51h-3.575z" fill="#A4A4A4"/></svg>