<svg width="81" height="82" fill="none" xmlns="http://www.w3.org/2000/svg"><path fill-rule="evenodd" clip-rule="evenodd" d="M49.738 8.314c-2.731-4.184-7.66-4.86-7.868-4.887-.464-.06-.905.15-1.162.542a1.28 1.28 0 0 0-.053 1.31l3.574 6.59c-3.065-.958-6.518-.33-9.313 1.715-.377.275-.57.744-.499 1.214.072.469.394.856.834 1l5.707 1.873a9.128 9.128 0 0 0-2.632 2.013c-2.931-1.524-6.277-1.673-9.102-.408l2.65-6.612a1.283 1.283 0 0 0-.196-1.284 1.195 1.195 0 0 0-1.197-.417c-.202.047-4.945 1.173-7.164 5.519-.743 1.455-1.11 3.077-1.1 4.854a10.303 10.303 0 0 0-2.79-1.574c-3.347-1.255-7.127-.726-10.108 1.42-.378.27-.574.736-.508 1.203.064.469.38.858.815 1.01l6.733 2.34c-.393.17-.78.364-1.158.582-3.197 1.847-5.184 5.073-5.184 8.42 0 .44.226.849.596 1.075a1.195 1.195 0 0 0 1.204.027l5.616-3.117c-.053.15-.103.302-.149.456-1.463 4.862 1.333 9.542 1.452 9.739a1.214 1.214 0 0 0 1.18.58 1.23 1.23 0 0 0 1.011-.85l3.241-10.063c1.665 3.741 3.956 10.373 4.244 19-6.06 1.934-10.965 5.334-13.65 9.46H3.92v2.506h73.16v-2.505H66.24c-3.456-5.348-10.28-9.201-18.464-10.646a63.754 63.754 0 0 1 3.271-24.554l4.226 8.224c.212.41.628.667 1.08.667h.03a1.221 1.221 0 0 0 1.076-.727c.094-.211 2.289-5.203.257-9.849a9.618 9.618 0 0 0-.26-.546l5.775 2.27a1.195 1.195 0 0 0 1.185-.182c.337-.27.51-.701.46-1.137-.39-3.341-2.604-6.171-5.925-7.572a10.604 10.604 0 0 0-1.187-.419l6.441-3.263c.408-.206.67-.627.68-1.093a1.26 1.26 0 0 0-.629-1.125A10.42 10.42 0 0 0 60.67 9.84c-3.556-.553-6.962.773-9.277 3.247-.194-1.787-.746-3.382-1.654-4.773zm-31.922 52.73h45.37c-4.402-5.317-13.153-8.769-22.686-8.769a40.945 40.945 0 0 0-4.959.309c.053 1.115.081 2.265.081 3.45h-2.438c0-18.165-7.001-27.966-7.072-28.063l.08-.062-.788.37a1.212 1.212 0 0 1-.174.118l-.312.173c1.65 2.904 6.89 13.469 5.825 28.806l-2.433-.179c.07-1.017.112-2.014.126-2.988-4.503 1.547-8.226 3.952-10.62 6.835zm22.613-11.273c-1.684.005-3.378.11-5.052.31-.754-9.017-3.103-15.53-4.94-19.405l8.476 2.75a1.21 1.21 0 0 0 1.206-.283c.322-.314.453-.78.343-1.22-.482-1.943-1.45-3.636-2.788-4.95l7.02-2.948a63.038 63.038 0 0 0-4.265 25.746zm4.883.27a41.933 41.933 0 0 0-2.437-.205 60.386 60.386 0 0 1 6.132-29.524l.216.071c.02.007.041.013.062.018l.019.008.018.007 1.018.4c-3.854 9.18-5.585 19.244-5.028 29.226zm1.343-30.5c-.191.393-.378.79-.56 1.187l-7.481 3.143c.666-1.733 1.815-3.1 3.32-3.898 1.169-.62 2.49-.859 3.847-.72l.873.287zm5.548 3.184l3.805 7.405c.217-1.452.222-3.267-.523-4.959-.582-1.321-1.563-2.426-2.93-3.305-.12.286-.236.572-.352.86zm-5.92-5.937c.224.029.45.066.675.11l-.407-.75a7.061 7.061 0 0 0-2.755-1.79c-1.61-.577-3.341-.575-4.992-.025l7.478 2.455zm-12.838 7.715l2.81-1.32a12.28 12.28 0 0 0-.573 2.277 10.2 10.2 0 0 0-2.237-.957zm15.569-9.245c.111-2.183-.32-4.034-1.288-5.529-.945-1.455-2.277-2.372-3.462-2.941l4.285 7.9c.162.183.316.373.465.57zm4.196 3.623l-.424.215 8.972 3.527c-.755-1.432-2.055-2.604-3.734-3.312-1.589-.67-3.276-.802-4.814-.43zm7.355-6.52l-8.215 4.16a9.44 9.44 0 0 0-.516.16c1.413-2.699 4.19-4.459 7.247-4.459a7.993 7.993 0 0 1 1.484.138zM28.736 27.495a21.454 21.454 0 0 0-.381-.602l.153-.072a8.196 8.196 0 0 1 4.857.29 7.557 7.557 0 0 1 3.764 3.108l-8.393-2.724zm-1.658-2.864c.204-.068.409-.13.615-.184l7.164-3.364a8.21 8.21 0 0 0-1.587-.156c-1.176 0-2.329.26-3.37.787a7.102 7.102 0 0 0-2.479 2.06l-.343.857zm-1.814-2.059l3.233-8.068c-1.085.66-2.275 1.67-3.031 3.16-.793 1.562-1.002 3.432-.631 5.584.134-.232.277-.457.428-.676zm-3.66 4.986l-.48-.168a6.99 6.99 0 0 0-.667-.031c-1.348 0-2.743.382-4.061 1.142-1.63.942-2.846 2.328-3.47 3.875l8.655-4.802.024-.016zm-8.41-5.569l8.524 2.965c.203.027.405.06.605.1a7.776 7.776 0 0 0-3.735-2.938 8.253 8.253 0 0 0-5.394-.127zm6.425 11.91c-.51 1.68-.331 3.386.023 4.763l2.78-8.63c-1.414 1.09-2.353 2.384-2.803 3.868zm45.267 32.156h-34.14v2.505h34.14v-2.505zm-49.99 0h13.412v2.505H14.895v-2.505zm31.7-11.275h-2.438v2.505h2.438V54.78zm3.657 1.252h2.439v2.506h-2.439v-2.506zm-9.754 0h-2.438v2.506h2.438v-2.506zM39.28 71.067h19.51v2.505H39.28v-2.505zm-2.437 0h-15.85v2.505h15.85v-2.505zm-3.658 5.011h13.412v2.505H33.185v-2.505z" fill="#A4A4A4"/></svg>