<svg width="34" height="42" fill="none" xmlns="http://www.w3.org/2000/svg"><path fill-rule="evenodd" clip-rule="evenodd" d="M19.492.167h-4.967c-1.565 0-2.838 1.245-2.838 2.777v3.472c0 .782.265 1.503.711 2.084h-2.314c.558-.66.894-1.508.894-2.43 0-2.107-1.75-3.82-3.903-3.82-2.152 0-3.903 1.713-3.903 3.82 0 1.138.512 2.16 1.321 2.861a2.765 2.765 0 0 0-1.32 2.347v3.472H2.32c-1.096 0-1.987.872-1.987 1.944v3.056c0 1.072.891 1.944 1.987 1.944h.851c0 1.533 1.273 2.778 2.839 2.778h2.13c.516 0 1-.135 1.418-.372v6.866l-5.936 2.581a.714.714 0 0 0-.059.026L.725 34.962a.701.701 0 0 0-.356.401.682.682 0 0 0 .04.531l2.448 4.784a2.121 2.121 0 0 0 1.905 1.155h.369c.813 0 1.544-.444 1.904-1.157a2.05 2.05 0 0 0 0-1.855l-.763-1.494 6.071-2.492c1.318-.538 2.175-1.788 2.182-3.19v-3.083c0-.34.284-.618.625-.618a.64.64 0 0 1 .56.341l5.993 10.399 1.413 2.765a.712.712 0 0 0 .952.31l4.258-2.083h.001a2.233 2.233 0 0 0 1.024-3.016c-.567-1.105-1.948-1.557-3.08-1.004l-.784.384-5.995-11.733v-4.209a4.483 4.483 0 0 0 2.706.902h.012a4.5 4.5 0 0 0 3.15-1.287l1.457-1.426 5.468 23.01 1.381-.314-5.668-23.852.867-.848a2.392 2.392 0 0 0-.006-3.423 2.471 2.471 0 0 0-1.735-.7h-.01a2.55 2.55 0 0 0-.293.018l-.25-1.057-1.382.314.313 1.32a2.426 2.426 0 0 0-.124.114l-2.999 2.935-2.887-3.39v-.442c0-1.302-.736-2.438-1.821-3.033a3.43 3.43 0 0 0 1.113-2.522V3.645a3.16 3.16 0 0 0-.019-.37A2.77 2.77 0 0 0 20.202.862a.702.702 0 0 0-.71-.694zM7.101 8.5H7.05c-1.358-.014-2.458-1.1-2.458-2.43 0-1.34 1.114-2.431 2.483-2.431 1.37 0 2.484 1.09 2.484 2.43 0 1.332-1.1 2.417-2.458 2.43zm3.497 1.389h.508l-.384.234a2.753 2.753 0 0 0-.124-.234zM27.862 15.3l-.242.237-.473-1.99a1.046 1.046 0 0 1 .812.41c.311.407.27.984-.097 1.343zm-1.424 1.393l-.558-2.35-3.046 2.98a.722.722 0 0 1-1.048-.047l-2.294-2.694v3.426l.19.275a3.032 3.032 0 0 0 2.519 1.327h.008c.802 0 1.582-.32 2.144-.876l2.085-2.041zm-9.88-5.443a2.354 2.354 0 0 0-.204-1.323c.978.187 1.719 1.033 1.719 2.044v11.806h-7.096V22.55l.975-1.908 1.499 1.038a2.5 2.5 0 0 0 1.375.41A2.486 2.486 0 0 0 16.894 21a2.36 2.36 0 0 0 .36-1.822 2.393 2.393 0 0 0-1.037-1.521l-2.259-1.59 1.956-3.467-.007-.003c.356-.368.584-.835.652-1.347zm-3.165 2.945l-1.133.677.538.378.595-1.055zm-5.905 3.357l2.07 1.433v1.32H4.592v-9.028c0-.766.637-1.39 1.42-1.39H8.14c.583 0 1.106.35 1.319.877l.02.117-1.975 1.206a3.259 3.259 0 0 0-1.494 2.736 3.251 3.251 0 0 0 1.478 2.729zm-2.896 4.141c0 .767.637 1.39 1.42 1.39H8.14c.758 0 1.378-.584 1.418-1.315v-.075H4.592zM24.217 36.66l-5.873-11.494h-7.367v6.25a.694.694 0 0 1-.421.634l-5.708 2.483.79 1.547 6.158-2.527a2.082 2.082 0 0 0 1.31-1.912v-3.08c0-1.107.92-2.007 2.05-2.007a2.06 2.06 0 0 1 1.798 1.062l5.663 9.827 1.6-.783zm-22.22-.767l1.567-.768.42.821 1.782 3.494a.683.683 0 0 1 0 .618.707.707 0 0 1-.635.385h-.37a.707.707 0 0 1-.634-.385v-.003l-2.13-4.162zm11.11-32.261v.412l1.626-1.592a.717.717 0 0 1 .502-.203h2.129c.524 0 .983-.28 1.228-.695h-4.067c-.783 0-1.42.623-1.42 1.39v.165l.069.018a1.833 1.833 0 0 0-.067.505zm0 2.784v-.408l2.421-2.37h1.836v2.778c0 1.14-.942 2.07-2.106 2.083h-.045c-1.163-.012-2.106-.942-2.106-2.083zm-9.935 9.722v4.167h-.851a.563.563 0 0 1-.568-.556v-3.056c0-.306.255-.555.568-.555h.851zm20.896 24.068l3.622-1.773a.855.855 0 0 0 .392-1.153.89.89 0 0 0-1.177-.382l-3.621 1.773.784 1.535zM7.075 5.027c-.587 0-1.065.468-1.065 1.042 0 .575.478 1.042 1.065 1.042s1.064-.467 1.064-1.042c0-.574-.477-1.041-1.064-1.041zm0 1.39a.351.351 0 0 1-.355-.348c0-.191.159-.347.355-.347.196 0 .355.156.355.347a.351.351 0 0 1-.355.348zm8.6 13.87a1.068 1.068 0 0 1-1.42.25l-5.963-4.129a1.883 1.883 0 0 1-.019-3.152l5.228-3.193a1.073 1.073 0 0 1 1.441.25 1.014 1.014 0 0 1-.19 1.44l-4.144 2.48a.692.692 0 0 0-.34.567.692.692 0 0 0 .295.59l4.849 3.412c.236.152.397.386.453.656.056.271.002.547-.19.828z" fill="#000"/></svg>