<svg width="81" height="82" fill="none" xmlns="http://www.w3.org/2000/svg"><path fill-rule="evenodd" clip-rule="evenodd" d="M45.928 11.39l-.272-2.279h3.38V6.833H31.965v2.278h3.382l-.272 2.279h-3.11v2.278h2.84l-.272 2.278h-5.007V9.11h-2.439v6.835h-2.438V9.11h-2.44v6.835h-3.657c-.674 0-1.22.51-1.22 1.139V34.44l-8.973 3.223c-.5.18-.815.64-.78 1.139.811 11.388 4.995 22.317 12.101 31.601l.902 1.183a7.68 7.68 0 0 0-.463.303c-1.88 1.336-4.51 1.333-6.392-.003-2.746-1.937-6.58-1.936-9.325 0l1.471 1.818c1.88-1.327 4.505-1.327 6.38-.002 2.75 1.952 6.592 1.952 9.339.002 1.878-1.328 4.502-1.327 6.38-.002a8.081 8.081 0 0 0 4.672 1.465c1.647 0 3.294-.489 4.667-1.463 1.88-1.328 4.504-1.327 6.382-.002 2.746 1.952 6.587 1.951 9.338.002 1.88-1.328 4.502-1.326 6.38-.002 2.747 1.952 6.588 1.951 9.338.002 1.88-1.33 4.505-1.327 6.38 0l1.472-1.818c-2.745-1.938-6.58-1.938-9.325.003-1.882 1.335-4.508 1.335-6.393-.003a7.719 7.719 0 0 0-.46-.301l.899-1.18c7.107-9.285 11.292-20.214 12.102-31.602.034-.498-.282-.96-.78-1.14l-8.972-3.222V17.085c0-.63-.545-1.14-1.22-1.14h-3.66V9.112h-2.439v6.835h-2.437V9.11h-2.439v6.835H46.47l-.27-2.278h2.838V11.39h-3.11zM22.864 70.656c2.232-.53 4.67-.118 6.58 1.23 1.884 1.336 4.511 1.339 6.393.003a7.988 7.988 0 0 1 3.444-1.366v-2.181H21.107c.183.247.369.494.556.739l1.201 1.575zm-3.363-4.592h19.78V35.949a6.45 6.45 0 0 0-1.045.294L11.112 46.377c1.5 6.97 4.336 13.637 8.389 19.686zM10.67 44.09a55.408 55.408 0 0 1-.593-4.604l25.609-9.197a14.01 14.01 0 0 1 3.595-.786v4.133a9.023 9.023 0 0 0-1.952.492l-26.66 9.962zm31.05-8.142v30.116H61.5c4.054-6.05 6.89-12.717 8.39-19.687L42.768 36.242a6.491 6.491 0 0 0-1.05-.293zm28.612 8.141l-26.657-9.96a9.073 9.073 0 0 0-1.956-.493v-4.132a14.02 14.02 0 0 1 3.6.787l25.605 9.195a55.436 55.436 0 0 1-.593 4.603zM41.72 70.522v-2.18h18.174c-.184.248-.37.494-.557.74l-1.2 1.574c-2.231-.529-4.669-.119-6.58 1.233-1.881 1.335-4.508 1.335-6.392-.003a7.993 7.993 0 0 0-3.446-1.364zm0-43.304v-2.16h-2.44v2.16a16.573 16.573 0 0 0-4.472.945l-7.721 2.773v-1.322h-2.44v2.198l-4.877 1.752v-1.672h2.439v-2.278H19.77v-2.278h2.439v-2.278H19.77V22.78h2.439v-2.278H19.77v-2.278h41.462v15.341l-4.878-1.751v-2.2h-2.439v1.324l-7.72-2.773a16.563 16.563 0 0 0-4.476-.947zm2.295-11.272h-7.029l.814-6.834h5.402l.813 6.834zm-2.296 4.556h-2.438v2.278h2.438v-2.278zm-7.316 0h2.439v2.278h-2.44v-2.278zm-2.439 0h-2.439v2.278h2.44v-2.278zm-7.316 0h2.439v2.278h-2.44v-2.278zm21.95 0H44.16v2.278h2.439v-2.278zm2.438 0h2.439v2.278h-2.44v-2.278zm7.318 0h-2.439v2.278h2.44v-2.278zm4.878 0h-2.44v2.278h2.44v-2.278zm-24.39 4.556h-2.44v2.278h2.44v-2.278zm-7.317 0h2.44v2.278h-2.44v-2.278zm-2.438 0h-2.44v2.278h2.44v-2.278zm17.073 0h2.439v2.278h-2.44v-2.278zm7.315 0h-2.44v2.278h2.44v-2.278zm2.44 0h2.44v2.278h-2.44v-2.278zm4.878 0h2.439v2.278h-2.44v-2.278zm0 4.556h2.439v2.278h-2.44v-2.278z" fill="#A4A4A4"/></svg>