<svg width="42" height="42" fill="none" xmlns="http://www.w3.org/2000/svg"><path fill-rule="evenodd" clip-rule="evenodd" d="M21.725.261a3.17 3.17 0 0 1 1.998 1.789c.935 1.92 1.44 4.1 1.444 6.272v7.422l3.553 1.923a2.085 2.085 0 0 1 4.086.573v1.639l2.186 1.183a2.087 2.087 0 0 1 1.981-1.435c1.149 0 2.083.934 2.083 2.082v1.553l2.414 1.306a.694.694 0 0 1 .363.61v4.164a.694.694 0 0 1-.938.65L25.167 24.1v5.938a.643.643 0 0 1-.013.131l-.7 3.628 6.625 3.973c.21.126.337.351.337.595v2.775a.692.692 0 0 1-.807.684l-7.544-1.256a2.325 2.325 0 0 1-2.063 1.266h-.004c-.884 0-1.672-.51-2.056-1.266l-7.55 1.257a.695.695 0 0 1-.808-.685v-2.776c0-.244.128-.47.337-.594l6.626-3.973-.7-3.628a.695.695 0 0 1-.013-.131v-5.939l-15.73 5.894a.693.693 0 0 1-.639-.08.694.694 0 0 1-.298-.57v-4.164c0-.254.14-.488.363-.61l2.415-1.306v-1.553c0-1.148.934-2.082 2.083-2.082.923 0 1.708.603 1.98 1.435l2.186-1.183v-1.64c0-1.147.935-2.081 2.084-2.081.95 0 1.753.639 2.003 1.509l3.553-1.923V8.323c-.013-2.25.512-4.51 1.517-6.527A2.948 2.948 0 0 1 21.725.261zm1.682 38.956l.767-3.97 5.854 3.51v1.563l-6.62-1.103zm-5.58-3.97l-5.855 3.51v1.564l6.622-1.103-.767-3.971zm19.84-12.737l-1.48-.801h.092a.694.694 0 0 1 1.388 0v.801zm-6.25-3.383v-.887a.695.695 0 0 0-1.389 0v.135l1.39.752zM5.814 21.71l-1.48.8v-.8a.695.695 0 0 1 1.388 0h.092zm6.158-3.334v-.135a.695.695 0 0 0-1.389 0v.887l1.39-.752zm13.195-1.053v5.294l15.278 5.725v-2.749l-15.278-8.27zm-1.389-8.999v21.646l-1.868 9.687a.921.921 0 0 1-.91.79c-.457 0-.847-.34-.914-.826l-1.863-9.65V8.32a13.15 13.15 0 0 1 1.373-5.906c.325-.654 1.075-.994 1.747-.819.496.155.899.519 1.116 1.029a13.19 13.19 0 0 1 1.32 5.699zM1.555 28.341l15.278-5.725v-5.293l-15.278 8.27v2.748zM20.994 4.36c.707.017 1.355.454 1.582 1.133l.473 1.424-1.319.437-.472-1.423a.27.27 0 0 0-.256-.183.267.267 0 0 0-.252.194l-.48 1.417-1.316-.447.472-1.388a1.638 1.638 0 0 1 1.568-1.164z" fill="#000"/></svg>