<svg width="85" height="85" viewBox="0 0 85 85" fill="none" xmlns="http://www.w3.org/2000/svg">
<path fill-rule="evenodd" clip-rule="evenodd" d="M22.1167 2C11.024 2 2 11.0241 2 22.1167V24.4834C2 24.9614 2.28871 25.3934 2.73135 25.5769C3.1715 25.7603 3.68153 25.6596 4.02003 25.3213C6.16902 23.1759 9.66576 23.1759 11.8146 25.3213C12.2761 25.7828 13.0252 25.7828 13.4867 25.3213C15.5229 23.2885 18.769 23.1818 20.9321 25.0011V54.0667H3.18328C2.53014 54.0667 2 54.5956 2 55.25V59.9833V71.8166C2 72.4711 2.53014 73 3.18328 73H7.91656C8.5697 73 9.09984 72.4711 9.09984 71.8167V61.1666H20.9321V73H23.2988V61.1666H65.8999V71.8166C65.8999 72.471 66.4288 72.9999 67.0832 72.9999H71.8165C72.4709 72.9999 72.9998 72.471 72.9998 71.8166V59.9833L72.9997 59.9631V55.25C72.9998 54.5956 72.4709 54.0667 71.8165 54.0667H69.031L64.8698 44.7031L67.8864 41.9185C68.1219 41.6995 68.2592 41.3943 68.2662 41.0725C68.2722 40.7506 68.1468 40.4394 67.9195 40.2121L64.3696 36.6621C63.9164 36.2113 63.1886 36.1983 62.7235 36.6361L44.1309 54.0667H23.2988V25.0043C25.462 23.1817 28.7108 23.2873 30.748 25.3213C31.2095 25.7828 31.9586 25.7828 32.4201 25.3213C34.5678 23.1759 38.0669 23.1748 40.2136 25.3213C40.4396 25.5461 40.7425 25.6669 41.0502 25.6669C41.2028 25.6669 41.3566 25.6373 41.5033 25.5769C41.9459 25.3934 42.2335 24.9616 42.2335 24.4834V22.1167C42.2332 11.0241 33.2091 2 22.1167 2ZM39.8666 22.1854C37.2302 20.8588 33.9997 21.1039 31.5833 22.9202C30.1871 21.8706 28.5186 21.3451 26.8501 21.3451C25.1816 21.3451 23.5131 21.8706 22.1168 22.9202C19.3253 20.8221 15.4416 20.8221 12.6501 22.9202C10.2338 21.1037 7.00327 20.8576 4.36685 22.1854V22.1167C4.36685 12.3294 12.3295 4.36671 22.1168 4.36671C31.9041 4.36671 39.8667 12.3294 39.8667 22.1167V22.1854H39.8666ZM63.0334 46.3982L54.7259 54.0667H66.4414L63.0334 46.3982ZM51.2369 54.0667H47.5911L63.5058 39.1473L65.3742 41.0157L51.2369 54.0667ZM70.6331 61.1666H68.2664V70.6333H70.6331V61.1666ZM70.6332 58.8V56.4333H4.36671V58.8L7.9167 58.8L7.92414 58.8H67.0757L67.0832 58.8L70.6332 58.8ZM4.36671 70.6333V61.1666H6.73341V70.6333H6.73327H4.36671ZM52.8838 15.0167C52.8838 11.1011 56.0681 7.91674 59.9838 7.91674C63.8994 7.91674 67.0837 11.1011 67.0837 15.0167C67.0837 18.9324 63.8994 22.1167 59.9838 22.1167C56.0681 22.1167 52.8838 18.9324 52.8838 15.0167ZM55.2505 15.0167C55.2505 17.6271 57.3734 19.75 59.9838 19.75C62.5943 19.75 64.7172 17.6271 64.717 15.0167C64.717 12.4064 62.5941 10.2835 59.9838 10.2835C57.3734 10.2835 55.2505 12.4062 55.2505 15.0167ZM61.1664 2H58.7997V5.55H61.1664V2ZM69.4502 13.8333H73.0002V16.2H69.4502V13.8333ZM50.5163 13.8333H46.9663V16.2H50.5163V13.8333ZM65.8428 7.48442L68.3513 4.97588L70.0247 6.64928L67.5162 9.15782L65.8428 7.48442ZM52.449 20.8822L49.9404 23.3907L51.6138 25.0641L54.1224 22.5556L52.449 20.8822ZM65.8408 22.5505L67.5141 20.8767L70.0229 23.3849L68.3497 25.0587L65.8408 22.5505ZM51.6103 4.96858L49.937 6.64232L52.4459 9.1505L54.1192 7.47676L51.6103 4.96858ZM58.7998 24.4833H61.1665V28.0333H58.7998V24.4833Z" fill="#B2B8BC"/>
</svg>
