<svg width="81" height="82" viewBox="0 0 81 82" fill="none" xmlns="http://www.w3.org/2000/svg">
<path fill-rule="evenodd" clip-rule="evenodd" d="M68.2118 10.25H37.175C36.5632 10.25 36.0666 10.7602 36.0666 11.3888V14.8055H33.848V11.389C33.848 10.7602 33.3514 10.25 32.7396 10.25H26.0888C25.477 10.25 24.9804 10.7602 24.9804 11.3888V14.8055H22.7645V11.389C22.7646 10.7602 22.268 10.25 21.656 10.25H15.0053C14.3935 10.25 13.8969 10.7602 13.8969 11.3888V14.8055H12.7889C12.1771 14.8055 11.6805 15.3157 11.6805 15.9444V26.1945H10.5715C8.7381 26.1945 7.24609 27.7275 7.24609 29.6112V68.3333C7.24609 70.8458 9.2347 72.8889 11.6799 72.8889H59.3436C61.789 72.8889 63.7774 70.8457 63.7774 68.3333C63.7774 65.8209 61.7888 63.7778 59.3436 63.7778H32.7406C31.518 63.7778 30.5236 62.7563 30.5236 61.5C30.5236 60.2439 31.5179 59.2222 32.7406 59.2222H69.3198C71.7651 59.2222 73.7536 57.179 73.7536 54.6667V29.6826C73.7541 29.6589 73.7543 29.6351 73.7543 29.6112C73.7543 27.7275 72.2623 26.1945 70.4289 26.1945H69.3204V11.389C69.3204 10.7602 68.8248 10.25 68.2118 10.25ZM71.5373 29.6112C71.5373 28.9836 71.0407 28.4723 70.4289 28.4723H69.3204V30.75H70.4289C71.0286 30.75 71.5175 30.2589 71.5368 29.6485V29.6112L71.5373 29.6112ZM71.5368 32.8329V54.6667C71.5368 55.9228 70.5425 56.9445 69.3198 56.9445H32.7406C30.2953 56.9445 28.3068 58.9877 28.3068 61.5C28.3068 64.0125 30.2954 66.0555 32.7406 66.0555H59.3436C60.5662 66.0555 61.5606 67.077 61.5606 68.3333C61.5606 69.5895 60.5664 70.6112 59.3436 70.6112H11.6799C10.4573 70.6112 9.46293 69.5896 9.46293 68.3333V32.8326C9.80982 32.959 10.183 33.0278 10.5715 33.0278H11.6805V51.2498C11.6805 51.8797 12.1771 52.3887 12.7889 52.3887H68.212C68.825 52.3887 69.3204 51.8797 69.3204 51.2498V33.0278H70.4289C70.8171 33.0278 71.1901 32.9591 71.5368 32.8329ZM31.631 14.8055H27.1972V12.5278H31.631V14.8055ZM26.0859 17.0833H21.6589L21.656 17.0833H15.0053L15.0024 17.0833H13.8973V23.9167H19.6287C20.0863 22.5911 21.3191 21.639 22.764 21.639C24.2089 21.639 25.4417 22.5911 25.8993 23.9167H31.6311V23.9893C33.9862 21.8206 37.0958 20.5 40.4999 20.5C43.9033 20.5 47.0121 21.82 49.367 23.9878V23.9167H67.1034V12.5278H38.2834V15.9445C38.2834 16.5731 37.7868 17.0833 37.175 17.0833H32.7425L32.7396 17.0833H26.0888L26.0859 17.0833ZM11.6805 28.4723H10.5715C9.9607 28.4723 9.46306 28.9836 9.46306 29.6112C9.46306 30.2387 9.9607 30.75 10.5715 30.75H11.6805V28.4723ZM13.8973 50.1111V45.5557H33.1544C35.2605 46.9944 37.7866 47.8333 40.4999 47.8333C43.2132 47.8333 45.7393 46.9944 47.8455 45.5557H67.1034V50.1111H13.8973ZM67.1034 43.2778V26.1945H51.2982C52.8729 28.4398 53.8014 31.1939 53.8014 34.1667C53.8014 37.6638 52.5165 40.8582 50.4063 43.2778H67.1034ZM30.5936 43.2778H13.8973V26.1945H19.6286C20.0862 27.5201 21.3191 28.4723 22.764 28.4723C24.2089 28.4723 25.4418 27.5201 25.8994 26.1945H29.7016C28.9602 27.2516 28.3621 28.4214 27.9366 29.6738C27.2014 29.5479 26.4398 29.6128 25.7318 29.8686C23.425 30.7023 22.2091 33.3081 23.0205 35.6782C23.6612 37.5494 25.3782 38.7225 27.2072 38.7225C27.4487 38.7225 27.6928 38.702 27.9368 38.6599C28.5216 40.3813 29.4327 41.9468 30.5936 43.2778ZM26.4678 32.0177C26.7622 31.9119 27.0741 31.8716 27.3818 31.8968C27.2612 32.6353 27.1984 33.3936 27.1984 34.1667C27.1984 34.9403 27.2613 35.699 27.382 36.4379C26.9952 36.4705 26.6049 36.3972 26.2462 36.2202C25.7119 35.9571 25.3106 35.4959 25.1133 34.9218C24.916 34.3478 24.9493 33.7295 25.2053 33.1816C25.4613 32.6327 25.9102 32.2192 26.4678 32.0177ZM20.5476 12.5278V14.8055H16.1138V12.5278H20.5476ZM57.1279 14.8056H63.7786C64.3916 14.8056 64.887 15.3159 64.887 15.9445V20.5C64.887 21.1286 64.3916 21.6388 63.7786 21.6388H57.1279C56.5149 21.6388 56.0194 21.1286 56.0194 20.5V15.9445C56.0194 15.3159 56.5149 14.8056 57.1279 14.8056ZM58.2364 19.3611H62.6702V17.0833H58.2364V19.3611ZM40.4999 45.5556C34.3878 45.5556 29.4153 40.4465 29.4153 34.1668C29.4153 27.8871 34.3878 22.7778 40.4999 22.7778C46.612 22.7778 51.5845 27.8869 51.5845 34.1667C51.5845 40.4464 46.612 45.5556 40.4999 45.5556ZM21.6556 25.0557C21.6556 25.6832 22.1532 26.1945 22.764 26.1945C23.3748 26.1945 23.8724 25.6832 23.8724 25.0557C23.8724 24.4281 23.3748 23.9168 22.764 23.9168C22.1532 23.9168 21.6556 24.4281 21.6556 25.0557ZM56.0194 35.3056C56.0194 33.8219 56.9451 32.5557 58.2342 32.085V29.6112C58.2342 28.9825 58.7296 28.4723 59.3426 28.4723C59.9556 28.4723 60.451 28.9825 60.451 29.6112V32.0834C61.7424 32.5529 62.6702 33.8202 62.6702 35.3056C62.6702 37.1894 61.1782 38.7223 59.3448 38.7223C57.5114 38.7223 56.0194 37.1894 56.0194 35.3056ZM58.2364 35.3056C58.2364 35.9332 58.733 36.4445 59.3448 36.4445C59.9566 36.4445 60.4532 35.9332 60.4532 35.3056C60.4532 34.6781 59.9566 34.1668 59.3448 34.1668C58.733 34.1668 58.2364 34.6781 58.2364 35.3056ZM31.6328 34.1668C31.6328 29.1431 35.611 25.0556 40.5005 25.0556C45.39 25.0556 49.3682 29.1431 49.3682 34.1668C49.3682 39.1905 45.39 43.278 40.5005 43.278C35.611 43.278 31.6328 39.1905 31.6328 34.1668ZM33.8497 34.1667C33.8497 37.9353 36.8326 41 40.5005 41C44.1684 41 47.1513 37.9353 47.1513 34.1667C47.1513 30.3981 44.1684 27.3333 40.5005 27.3333C36.8326 27.3333 33.8497 30.3981 33.8497 34.1667ZM31.6328 19.3611H28.3074V21.639H31.6328V19.3611Z" fill="#A4A4A4"/>
</svg>
