<svg width="71" height="71" viewBox="0 0 71 71" fill="none" xmlns="http://www.w3.org/2000/svg">
<path fill-rule="evenodd" clip-rule="evenodd" d="M20.0695 0C9.00289 0 0 9.00289 0 20.0695V22.4306C0 22.9075 0.288037 23.3385 0.729639 23.5215C1.16875 23.7045 1.67759 23.6041 2.01529 23.2665C4.15925 21.1262 7.64779 21.1262 9.7916 23.2665C10.252 23.727 10.9994 23.727 11.4598 23.2665C13.4912 21.2385 16.7297 21.1321 18.8877 22.9471V51.9445H1.18051C0.528898 51.9445 0 52.4722 0 53.125V57.8472V69.6527C0 70.3057 0.528898 70.8333 1.18051 70.8333H5.90269C6.5543 70.8333 7.0832 70.3057 7.0832 69.6528V59.0277H18.8877V70.8333H21.2489V59.0277H63.75V69.6527C63.75 70.3055 64.2777 70.8332 64.9305 70.8332H69.6528C70.3056 70.8332 70.8333 70.3055 70.8333 69.6527V57.8472L70.8332 57.8329V53.125C70.8333 52.4722 70.3057 51.9445 69.6528 51.9445H66.8738L62.7223 42.6029L65.7319 39.8248C65.9668 39.6063 66.1038 39.3018 66.1108 38.9807C66.1168 38.6596 65.9917 38.3492 65.7649 38.1224L62.2233 34.5808C61.7712 34.131 61.0451 34.118 60.5811 34.5548L42.0321 51.9445H21.2489V22.9503C23.407 21.132 26.6481 21.2374 28.6806 23.2665C29.141 23.727 29.8883 23.727 30.3488 23.2665C32.4915 21.1262 35.9824 21.1251 38.124 23.2665C38.3495 23.4908 38.6516 23.6113 38.9586 23.6113C39.1109 23.6113 39.2644 23.5818 39.4107 23.5215C39.8522 23.3385 40.1391 22.9077 40.1391 22.4306V20.0695C40.1388 9.00289 31.136 0 20.0695 0ZM37.7778 20.138C35.1476 18.8145 31.9247 19.059 29.514 20.8711C28.121 19.8239 26.4564 19.2997 24.7918 19.2997C23.1272 19.2997 21.4626 19.8239 20.0696 20.8711C17.2847 18.7779 13.4101 18.7779 10.6251 20.8711C8.21445 19.0589 4.99154 18.8133 2.3613 20.138V20.0695C2.3613 10.3051 10.3053 2.36116 20.0696 2.36116C29.834 2.36116 37.778 10.3051 37.778 20.0695V20.138H37.7778ZM60.8903 44.294L52.6022 51.9445H64.2902L60.8903 44.294ZM49.1215 51.9445H45.4842L61.3615 37.0601L63.2256 38.9242L49.1215 51.9445ZM68.4721 59.0277H66.1109V68.4722H68.4721V59.0277ZM68.4723 56.6667V54.3055H2.36116V56.6667L5.90282 56.6667L5.91026 56.6667H64.9231L64.9305 56.6667L68.4723 56.6667ZM2.36116 68.4722V59.0277H4.72231V68.4722H4.72218H2.36116ZM50.7645 12.9862C50.7645 9.0797 53.9413 5.90285 57.8478 5.90285C61.7543 5.90285 64.9311 9.0797 64.9311 12.9862C64.9311 16.8927 61.7543 20.0695 57.8478 20.0695C53.9413 20.0695 50.7645 16.8927 50.7645 12.9862ZM53.1256 12.9862C53.1256 15.5904 55.2436 17.7084 57.8478 17.7084C60.4522 17.7084 62.5701 15.5904 62.57 12.9862C62.57 10.382 60.452 8.26401 57.8478 8.26401C55.2436 8.26401 53.1256 10.3818 53.1256 12.9862ZM59.0278 0H56.6667V3.54167H59.0278V0ZM67.2917 11.8055H70.8333V14.1666H67.2917V11.8055ZM48.4022 11.8055H44.8605V14.1666H48.4022V11.8055ZM63.6929 5.47154L66.1956 2.96889L67.8651 4.63837L65.3624 7.14102L63.6929 5.47154ZM50.3307 18.8379L47.8281 21.3405L49.4976 23.01L52.0002 20.5074L50.3307 18.8379ZM63.6912 20.5022L65.3605 18.8324L67.8635 21.3347L66.1942 23.0045L63.6912 20.5022ZM49.4939 2.96161L47.8246 4.63141L50.3276 7.13371L51.9969 5.4639L49.4939 2.96161ZM56.6667 22.4305H59.0278V25.9721H56.6667V22.4305Z" fill="#B2B8BC"/>
</svg>
