<svg width="71" height="71" viewBox="0 0 71 71" fill="none" xmlns="http://www.w3.org/2000/svg">
<path fill-rule="evenodd" clip-rule="evenodd" d="M65.6006 18.9812L63.2758 16.6204H68.5506V18.9812H65.6006ZM67.9253 21.3419L68.4588 21.8837C68.4898 21.9149 68.5204 21.9464 68.5506 21.9781V21.3419H67.9253ZM69.731 14.2597H60.951L48.715 1.83423L48.7103 1.82902L48.702 1.82067C48.6976 1.81625 48.6932 1.81182 48.689 1.80712C46.3861 -0.493432 42.6421 -0.488728 40.3486 1.80587L27.7186 14.2597H7.76247C3.53214 14.2597 0.0902405 17.7016 0.0902405 21.9319C0.0902405 22.1306 0.0978312 22.3275 0.112739 22.5224H0.0902405V28.4411V28.4436V57.9488V57.9513V63.2445C0.0902405 67.4748 3.53214 70.9167 7.76247 70.9167H65.0096C65.6623 70.9167 66.1899 70.3891 66.1899 69.7364V57.9328L69.73 57.9328L69.731 57.9328C69.7516 57.9328 69.7721 57.9322 69.7924 57.9312C69.8144 57.9301 69.8363 57.9284 69.858 57.926C70.4508 57.8629 70.9114 57.3622 70.9114 56.7524V15.4401C70.9114 14.7886 70.3837 14.2597 69.731 14.2597ZM2.53706 58.8972L2.45097 58.9133V61.1961L3.25277 60.5721C3.65757 61.0926 4.14856 61.5317 4.71288 61.874L3.48768 63.8912C3.1199 63.668 2.77375 63.4168 2.45097 63.1392V63.2444C2.45097 66.1729 4.83411 68.556 7.76261 68.556H63.8294V57.9328L47.3033 57.9328C42.0968 57.9328 37.8605 53.6965 37.8605 48.49C37.8605 43.2835 42.0968 39.0473 47.3033 39.0473H63.8292V29.6042H7.76247C5.70307 29.6042 3.83053 28.7885 2.45097 27.4632V28.4288H2.45101C2.44976 28.7521 2.47923 29.0756 2.53706 29.3907L2.45097 29.4066V31.688L3.25277 31.0644C3.65757 31.585 4.14856 32.0228 4.71288 32.3652L3.48768 34.3825C3.1199 34.1592 2.77375 33.9079 2.45097 33.6301V57.9364H2.45101C2.44976 58.2599 2.47923 58.5844 2.53706 58.8972ZM14.5509 27.2437L20.5349 21.3431H8.94192C6.43345 21.3431 4.32512 23.0917 3.77191 25.4337C4.74618 26.5426 6.17411 27.2437 7.76247 27.2437H14.5509ZM2.45083 21.9321C2.45083 22.1301 2.46173 22.3256 2.48295 22.5181C3.84872 20.3931 6.23376 18.9825 8.94192 18.9825V18.9824H22.9291L25.3245 16.6204H7.76247C4.83397 16.6204 2.45083 19.0036 2.45083 21.9321ZM42.0118 3.48068L17.9127 27.2437H42.0891L45.2842 24.0486L46.9535 25.7179L45.4277 27.2437H51.7413C52.2902 24.5536 54.6747 22.5234 57.5244 22.5234C60.3742 22.5234 62.7586 24.5536 63.3074 27.2437H65.0094C65.6623 27.2437 66.1898 27.7726 66.1899 28.4238V29.1247L66.7849 28.5324C68.1482 27.1596 68.1482 24.9205 66.7802 23.5442L47.0164 3.47473L47.0144 3.47224L47.0119 3.46975L47.0083 3.46629L47.0082 3.46626L47.0034 3.46173C45.6225 2.09612 43.3881 2.10677 42.0118 3.48068ZM60.8628 27.2437C60.3752 25.8704 59.0626 24.8842 57.5244 24.8842C55.9862 24.8842 54.6736 25.8704 54.186 27.2437H60.8628ZM66.1899 39.0473V32.4541L68.4541 30.2003L68.4881 30.1658C68.5091 30.1443 68.53 30.1227 68.5506 30.101V39.0473H66.1899ZM68.5496 41.408H47.3033C43.3975 41.408 40.2213 44.5843 40.2213 48.49C40.2213 52.3958 43.3975 55.5721 47.3033 55.5721L63.8292 55.572L68.5496 55.5721V41.408ZM47.3031 43.7686C44.6993 43.7686 42.5816 45.8861 42.5816 48.49C42.5816 51.094 44.6991 53.2115 47.3031 53.2115C49.9069 53.2115 52.0246 51.094 52.0246 48.49C52.0246 45.8861 49.9069 43.7686 47.3031 43.7686ZM47.3031 50.8508C46.0011 50.8508 44.9423 49.792 44.9423 48.49C44.9423 47.1881 46.0011 46.1293 47.3031 46.1293C48.6051 46.1293 49.6638 47.1881 49.6638 48.49C49.6638 49.792 48.6049 50.8508 47.3031 50.8508ZM43.7055 8.71047L33.0824 19.3336L34.7517 21.0028L45.3748 10.3797L43.7055 8.71047ZM41.3469 18.1476L47.2476 12.2468L48.9169 13.9161L43.0161 19.8168L41.3469 18.1476ZM18.2994 33.1454H15.9033V35.5061H18.2994V33.1454ZM25.4889 33.1454H27.8851V35.5061H25.4889V33.1454ZM23.0933 33.1454H20.6971V35.5061H23.0933V33.1454ZM13.509 33.1454H11.1129V35.5061H13.509V33.1454ZM6.11176 35.3822L6.54022 33.0604C6.76396 33.1015 6.99051 33.1151 7.21872 33.1288L7.21882 33.1288C7.3181 33.1347 7.41769 33.1407 7.5175 33.149L8.71668 33.1454V35.5062L7.51985 35.5098C7.51639 35.5109 7.51169 35.5109 7.50809 35.5109C7.04186 35.5109 6.57204 35.4672 6.11176 35.3822ZM42.2612 33.1454H39.865V35.5061H42.2612V33.1454ZM30.2811 33.1454H32.6772V35.5061H30.2811V33.1454ZM56.6374 33.1454H54.2425V35.5061H56.6374V33.1454ZM59.0347 33.1454H61.4308V35.5061H59.0347V33.1454ZM51.8467 33.1454H49.4505V35.5061H51.8467V33.1454ZM44.6584 33.1454H47.0533V35.5061H44.6584V33.1454ZM37.4694 33.1454H35.0745V35.5061H37.4694V33.1454ZM30.2811 62.6542H32.6772V65.0149H30.2811V62.6542ZM27.8851 62.6542H25.4889V65.0149H27.8851V62.6542ZM20.6971 62.6542H23.0933V65.0149H20.6971V62.6542ZM6.11355 64.891L6.53966 62.5693C6.86186 62.6282 7.19002 62.6577 7.51693 62.6578L8.71612 62.6542V65.015L7.51693 65.0186C7.04836 65.0186 6.57618 64.976 6.11355 64.891ZM13.509 62.6542H11.1129V65.0149H13.509V62.6542ZM15.905 62.6542H18.3011V65.0149H15.905V62.6542ZM56.6374 62.6542H54.2425V65.0149H56.6374V62.6542ZM49.4505 62.6542H51.8467V65.0149H49.4505V62.6542ZM61.4308 62.6542H59.0347V65.0149H61.4308V62.6542ZM35.0745 62.6542H37.4706V65.0149H35.0745V62.6542ZM42.2612 62.6542H39.865V65.0149H42.2612V62.6542ZM44.6584 62.6542H47.0533V65.0149H44.6584V62.6542ZM52.3718 16.9646L47.6503 21.6861L49.3195 23.3554L54.041 18.6339L52.3718 16.9646Z" fill="#B2B8BC"/>
</svg>
