<svg width="71" height="71" viewBox="0 0 71 73" fill="none" xmlns="http://www.w3.org/2000/svg">
<path fill-rule="evenodd" clip-rule="evenodd" d="M24.9175 1.70264C43.5524 -4.12762 63.4503 6.2843 69.2829 24.9155C72.1075 33.9411 71.25 43.5265 66.865 51.9056C62.4801 60.2845 55.0954 66.4554 46.07 69.28C42.6073 70.3666 39.0655 70.8871 35.5633 70.8871C31.3511 70.8876 27.1922 70.1339 23.2836 68.6972C18.3651 70.9513 14.026 72.083 10.4575 72.083C7.25763 72.083 4.67775 71.1726 2.85104 69.3472C-3.68923 62.808 1.9083 46.356 16.4616 29.3391L18.2846 30.8984C5.0158 46.4137 -0.889971 62.2132 4.54809 67.6512C7.34605 70.4481 12.9777 70.3349 20.2217 67.4072C14.4668 64.6609 9.42051 60.36 5.78847 54.759L7.80108 53.454C15.831 65.8341 31.2695 71.4004 45.354 66.9927C53.7689 64.3588 60.6533 58.6065 64.7396 50.7937C67.535 45.4515 68.7928 39.5837 68.4667 33.7166H63.67C63.2407 33.7166 62.8424 33.4863 62.629 33.1121L58.1768 25.3208H52.3177L50.2752 28.3853C50.0521 28.7187 49.6779 28.9189 49.2773 28.9189H44.4798C43.8166 28.9189 43.2804 28.3816 43.2804 27.7196V19.3239C43.2804 18.6618 43.8165 18.1245 44.4798 18.1245H51.1795L55.6256 13.6784C55.851 13.453 56.1545 13.327 56.4736 13.327H59.975C57.3941 10.4797 54.3024 8.0812 50.7955 6.24591C47.2703 4.40126 43.5154 3.22606 39.6824 2.73397V3.732C39.6824 4.28254 39.3069 4.76221 38.7733 4.89538L34.176 6.04441L30.7505 8.328C30.5503 8.46117 30.3188 8.52952 30.0861 8.52952C29.9026 8.52952 29.7191 8.48747 29.5499 8.40352L22.792 5.02458C15.7418 7.9581 10.1688 13.143 6.65799 19.4615C6.84959 19.5621 7.01357 19.7142 7.12816 19.9059L10.7263 25.9028C11.0094 26.3753 10.935 26.9785 10.5463 27.3683L7.29958 30.6151V34.916C7.29958 35.5781 6.76226 36.1154 6.1002 36.1154H2.48823C2.54471 39.1787 3.03255 42.2839 3.99298 45.352L1.70335 46.0692C-4.12818 27.4379 6.28501 7.53529 24.9175 1.70264ZM25.9159 3.90439L30.0009 5.94724L33.0198 3.93464C33.1337 3.85912 33.2608 3.80273 33.394 3.76912L37.2836 2.79643V2.51579C33.4913 2.31183 29.6541 2.77037 25.9159 3.90439ZM2.53199 33.7167C2.76022 29.5629 3.77569 25.5261 5.47276 21.8082L8.18861 26.3345L5.25252 29.2706C5.02696 29.4949 4.9011 29.8007 4.9011 30.1185V33.7167H2.53199ZM66.9946 25.6329C67.5813 27.508 67.9975 29.4091 68.2448 31.3178H64.3655L59.9134 23.5266C59.6999 23.1524 59.3017 22.922 58.8723 22.922H51.6761C51.2754 22.922 50.9012 23.1223 50.6782 23.4557L48.6356 26.5202H45.6792V20.5233H51.6761C51.9951 20.5233 52.2986 20.3973 52.524 20.1719L56.9701 15.7258H61.9494C64.1519 18.678 65.8617 22.014 66.9946 25.6329ZM17.2355 13.4818L26.6219 16.2984L25.0258 17.8942L16.5782 14.1391L17.2355 13.4818ZM14.0077 15.6228L23.2081 19.7118L21.3251 21.5946L17.1859 20.5595C16.777 20.4575 16.3451 20.5762 16.0465 20.8749L13.6477 23.2737C13.3863 23.5351 13.2592 23.9021 13.3047 24.268C13.3503 24.6338 13.5614 24.96 13.878 25.1496L19.6183 28.5942L23.0629 34.3344C23.2524 34.6511 23.5774 34.8622 23.9445 34.9078C23.9924 34.9138 24.0416 34.9162 24.0908 34.9162C24.4063 34.9162 24.7121 34.7915 24.9401 34.566L27.3388 32.1673C27.6362 31.8686 27.7562 31.4369 27.6542 31.0278L26.6204 26.8935L28.4933 25.039L32.4392 34.192C32.5915 34.5447 32.9034 34.8037 33.2788 34.8876C33.3664 34.9068 33.4538 34.9165 33.5415 34.9165C33.8306 34.9165 34.1135 34.8121 34.3343 34.6167L36.8771 32.3739C37.2272 32.0652 37.3652 31.5819 37.2333 31.1333L33.856 19.7293L36.9531 16.6627C38.7161 14.8167 39.6864 12.3916 39.6841 9.7302C39.6841 9.06814 39.1479 8.53082 38.4847 8.53082H38.4823C35.8436 8.53082 33.362 9.55864 31.4958 11.425L28.5486 14.3719L17.2377 10.9787C16.818 10.8515 16.3586 10.9667 16.0455 11.2797L13.6468 13.6785C13.3673 13.9579 13.2437 14.3573 13.3157 14.746C13.3877 15.1345 13.6468 15.462 14.0077 15.6228ZM31.9211 21.645L30.3244 23.226L33.9877 31.7236L34.7157 31.0807L31.9211 21.645ZM24.4458 25.6676C24.1447 25.9651 24.0236 26.3993 24.1256 26.8106L25.1607 30.9498L24.3284 31.7821L21.5205 27.1022C21.4186 26.933 21.2782 26.7915 21.1092 26.6908L16.4292 23.883L17.2616 23.0506L21.4007 24.0858C21.8096 24.1877 22.2415 24.069 22.5402 23.7704L33.1908 13.1198C34.2942 12.0152 35.683 11.2991 37.1895 11.0388C36.952 12.5213 36.2767 13.8958 35.2405 14.9812L24.4458 25.6676ZM62.4706 40.9131C62.9133 40.9131 63.3198 41.1566 63.5285 41.5464C63.7372 41.9362 63.7132 42.4099 63.4683 42.777L58.8723 49.671V54.1052C58.8723 54.4243 58.7463 54.7289 58.5209 54.9532L53.7234 59.7507C53.4967 59.9774 53.192 60.1034 52.8741 60.1034H46.8772C46.2139 60.1034 45.6779 59.5673 45.6779 58.904V45.7107H42.0797C41.4165 45.7107 40.8803 45.1746 40.8803 44.5113V34.9161C40.8803 34.254 41.4164 33.7167 42.0797 33.7167H54.0737C54.5283 33.7167 54.9433 33.9735 55.1472 34.38L58.4143 40.9131H62.4706ZM56.4724 49.3089C56.4724 49.0726 56.5432 48.84 56.6739 48.6432L60.2289 43.312H57.6718C57.2173 43.312 56.8023 43.0553 56.5984 42.6487L53.3313 36.1156H43.278V43.3119H46.8761C47.5394 43.3119 48.0755 43.848 48.0755 44.5113V57.7046H48.0768H52.3777L56.4724 53.6099V49.3089ZM28.1836 43.3119H34.8833C35.5454 43.3119 36.0827 43.8481 36.0829 44.5114V50.5083C36.0829 50.873 35.9173 51.2172 35.6331 51.445L30.086 55.8816V58.904C30.086 59.2806 29.9083 59.6368 29.6061 59.8635L24.8086 63.4616C24.5964 63.6212 24.3433 63.7015 24.089 63.7015C23.9067 63.7015 23.722 63.6595 23.5528 63.5755C23.1462 63.3717 22.8895 62.9568 22.8895 62.5021V50.5082H18.092C17.4299 50.5082 16.8926 49.9721 16.8926 49.3088V40.9131C16.8926 40.25 17.4299 39.7138 18.092 39.7138H24.0889C24.4067 39.7138 24.7126 39.8396 24.9369 40.0652L28.1836 43.3119ZM28.1368 54.3692L33.684 49.9326V45.7108H27.687C27.3692 45.7108 27.0634 45.5848 26.8391 45.3594L23.5924 42.1127H19.2914V48.1096H24.0889C24.751 48.1096 25.2883 48.6456 25.2883 49.3089V60.1035L27.687 58.3044V55.3058C27.687 54.9412 27.8526 54.5971 28.1368 54.3692Z" fill="white"/>
</svg>
