<svg width="71" height="71" viewBox="0 0 56 71" fill="none" xmlns="http://www.w3.org/2000/svg">
<path fill-rule="evenodd" clip-rule="evenodd" d="M31.8753 0H23.6114C21.007 0 18.8892 2.11794 18.8892 4.72218V9.44435L18.8895 9.46792V10.625C18.8895 11.9527 19.3301 13.1794 20.0728 14.1666H16.221C17.1499 13.0433 17.7087 11.6031 17.7087 10.0347C17.7087 6.45416 14.7964 3.5417 11.2157 3.5417C7.63505 3.5417 4.72272 6.45416 4.72272 10.0347C4.72272 11.9695 5.57316 13.7093 6.9199 14.8998C5.60011 15.738 4.72272 17.2128 4.72272 18.889V24.7917H3.30551C1.4828 24.7917 1.84016e-07 26.2745 1.84016e-07 28.0972V33.2917C1.84016e-07 35.1144 1.4828 36.5972 3.30551 36.5972H4.72272V36.5973C4.72272 39.2017 6.84066 41.3195 9.44489 41.3195H12.9865C13.8462 41.3195 14.6528 41.0887 15.3478 40.6859V41.3195H15.3471V52.3588L5.46672 56.7489C5.43537 56.7614 5.40446 56.7753 5.37407 56.7906L0.651906 59.1518C0.37217 59.2922 0.159671 59.5378 0.0604765 59.8341C-0.038718 60.1315 -0.0150612 60.4575 0.125361 60.7372L4.19827 68.8689C4.80132 70.0802 6.01489 70.8333 7.36778 70.8333H7.98162C9.33451 70.8333 10.5506 70.0789 11.1502 68.8666C11.6414 67.8796 11.6414 66.7013 11.1492 65.7133L9.88021 63.1717L19.9809 58.9368C22.1731 58.0219 23.5981 55.8969 23.6111 53.5144V48.2727C23.6111 47.6931 24.0822 47.222 24.6499 47.222C25.0359 47.2256 25.3866 47.4381 25.5814 47.8017L35.5564 65.4878L37.9028 70.1805C38.1106 70.5948 38.5273 70.8333 38.9606 70.8333C39.1389 70.8333 39.3183 70.7932 39.4871 70.7081L46.5704 67.1665C46.5704 67.1665 46.5717 67.1652 46.5728 67.1652C48.4497 66.2221 49.2159 63.9247 48.2773 62.0382C47.3329 60.1599 45.0356 59.3926 43.1526 60.3323L41.847 60.9851L31.8755 41.0421V33.8857C33.1468 34.8669 34.7208 35.4167 36.3758 35.4167H36.3947C38.3544 35.4167 40.2658 34.6175 41.6353 33.2292L44.0589 30.8056L53.1553 69.9224L55.4538 69.3879L46.0246 28.8399L47.4673 27.3972C48.9016 25.9617 49.0656 23.6536 47.8485 22.0281C47.7281 21.8687 47.597 21.7187 47.4565 21.5783C46.6833 20.8098 45.6597 20.3883 44.5701 20.3883H44.5547C44.3902 20.3888 44.2272 20.399 44.0662 20.4185L43.6485 18.622L41.3499 19.1565L41.8719 21.4009C41.8013 21.4629 41.7326 21.5275 41.6659 21.5948L36.6768 26.5838L31.8755 20.8221V20.0695C31.8755 17.8563 30.6513 15.9238 28.8445 14.9134C29.9836 13.8367 30.6956 12.3124 30.6962 10.625V5.9133C30.6981 5.70362 30.6879 5.4941 30.6658 5.28579C32.0923 4.47241 33.0558 2.93708 33.0558 1.18051C33.0559 0.528898 32.5281 0 31.8753 0ZM11.2394 14.1666H11.192C8.92447 14.1538 7.08374 12.3054 7.08374 10.0347C7.08374 7.75628 8.93716 5.90272 11.2157 5.90272C13.4942 5.90272 15.3477 7.75614 15.3477 10.0347C15.3477 12.3054 13.507 14.1538 11.2394 14.1666ZM17.0772 16.5278H17.9203L17.2824 16.9259C17.22 16.7892 17.1515 16.6564 17.0772 16.5278ZM45.7979 25.7279L45.3947 26.1311L44.6084 22.7498C45.0546 22.7594 45.4752 22.9368 45.792 23.2523C45.8521 23.3125 45.91 23.3775 45.9596 23.4447C46.4768 24.1366 46.4083 25.1176 45.7979 25.7279ZM43.429 28.0968L42.4996 24.1006L37.4323 29.1669C37.1985 29.4018 36.874 29.5247 36.5446 29.5116C36.2128 29.4964 35.9035 29.3429 35.6899 29.0879L31.8755 24.5107V30.3354L32.1897 30.7995C33.1306 32.2162 34.6925 33.0555 36.3795 33.0555H36.3936C37.7276 33.0555 39.0251 32.5125 39.9601 31.5657L43.429 28.0968ZM22.8842 16.5278H22.8752C22.5403 16.5287 22.2031 16.6255 21.9058 16.8241L13.2086 22.2512C12.3386 22.8332 11.8026 23.8366 11.805 24.9192C11.8026 26.0065 12.3398 27.0099 13.2393 27.6109L23.1596 34.6304C23.9128 35.1346 24.9623 34.9539 25.5219 34.2031C25.8417 33.725 25.9326 33.2562 25.8394 32.7958C25.7449 32.3354 25.4769 31.9388 25.085 31.6802L17.0183 25.8802C16.6972 25.6488 16.513 25.2723 16.5271 24.8767C16.5424 24.4813 16.7537 24.12 17.0926 23.9134L23.9882 19.6952C24.3553 19.4131 24.5915 19.001 24.6517 18.5395C24.712 18.0766 24.588 17.6174 24.3034 17.2479C23.9538 16.7783 23.4222 16.5292 22.8842 16.5278ZM29.5145 20.0695C29.5145 18.3492 28.281 16.9111 26.6522 16.5932C26.9724 17.2855 27.0937 18.0614 26.9928 18.8429C26.8795 19.7133 26.5011 20.5069 25.9091 21.1322L25.922 21.1394L22.6674 27.0332L26.4237 29.7346C27.3032 30.3155 27.9301 31.2434 28.1509 32.3213C28.3717 33.3992 28.1579 34.4994 27.5511 35.4179C27.5087 35.4829 27.4615 35.5491 27.4107 35.6163C26.6068 36.6965 25.3684 37.2715 24.1099 37.2715C23.3212 37.2715 22.5243 37.046 21.8219 36.5749L19.3297 34.8115L17.709 38.0531V40.139H29.5145V20.0695ZM20.7368 25.6448L21.7291 23.8479L19.8409 25.0006L20.7368 25.6448ZM11.9029 29.5564L15.3478 31.994V34.2361H7.08498V18.889C7.08498 17.5869 8.14388 16.5278 9.44613 16.5278H12.9878C13.957 16.5278 14.8271 17.1216 15.1813 18.0166L15.2151 18.2159L11.9289 20.2666C10.3693 21.3067 9.44034 23.0481 9.4438 24.918C9.44145 26.7939 10.3693 28.5341 11.9029 29.5564ZM7.08498 36.5973V36.5973C7.08498 37.8996 8.14402 38.9585 9.44613 38.9585H12.9878C14.2652 38.9585 15.3085 37.9394 15.3478 36.6715V36.5973H7.08498ZM2.76736 60.736L5.37527 59.4308L6.24695 61.1741L9.03845 66.7662C9.20239 67.0956 9.20239 67.4877 9.03831 67.817C8.83757 68.2207 8.43263 68.4722 7.98176 68.4722H7.36792C6.91816 68.4722 6.51322 68.2207 6.31248 67.817C6.31248 67.8164 6.31228 67.8159 6.31205 67.8154C6.31174 67.8146 6.31137 67.8136 6.31137 67.8123L2.76736 60.736ZM29.9642 42.5H17.7083V53.125C17.7083 53.5924 17.4332 54.0138 17.007 54.2039L7.51061 58.4245L8.82573 61.0536L19.0695 56.7588C20.3869 56.2086 21.2416 54.9336 21.2499 53.5075V48.2729C21.2499 46.3911 22.7799 44.8611 24.6617 44.8611C25.9224 44.874 27.0641 45.5659 27.6508 46.6661L37.0729 63.371L39.7351 62.0406L29.9642 42.5ZM21.2518 5.89213V6.59296L23.9573 3.88753C24.1792 3.66563 24.4791 3.54167 24.7919 3.54167H28.3336C29.2062 3.54167 29.97 3.06589 30.3773 2.36102H23.6114C22.3092 2.36102 21.2502 3.42006 21.2502 4.72218V5.00296L21.3628 5.03383C21.2873 5.31246 21.2495 5.6005 21.2518 5.89213ZM21.2518 10.625V9.93153L25.2807 5.90269H28.3336H28.3352V5.90278V10.625C28.3352 12.5776 26.7461 14.1666 24.7935 14.1666C22.8409 14.1666 21.2518 12.5776 21.2518 10.625ZM3.30551 34.2362H4.72218V27.1527H3.30551C2.78477 27.1527 2.36102 27.5766 2.36102 28.0972V33.2917C2.36102 33.8124 2.78491 34.2362 3.30551 34.2362ZM39.4868 68.0685L45.5136 65.0545C46.2302 64.6921 46.523 63.8138 46.1654 63.0948C45.8065 62.3806 44.9258 62.0867 44.2068 62.4455L38.1824 65.4583L39.4868 68.0685ZM11.2163 8.26385C10.24 8.26385 9.44544 9.05837 9.44544 10.0347C9.44544 11.011 10.24 11.8055 11.2163 11.8055C12.1926 11.8055 12.9871 11.011 12.9871 10.0347C12.9871 9.05837 12.1926 8.26385 11.2163 8.26385ZM11.2163 10.625C10.8905 10.625 10.6259 10.3606 10.6259 10.0347C10.6259 9.70888 10.8903 9.44436 11.2163 9.44436C11.5421 9.44436 11.8066 9.70874 11.8066 10.0347C11.8066 10.3606 11.5421 10.625 11.2163 10.625Z" fill="white"/>
</svg>
