<svg width="71" height="71" viewBox="0 0 71 71" fill="none" xmlns="http://www.w3.org/2000/svg">
<path fill-rule="evenodd" clip-rule="evenodd" d="M39.6783 1.82655C38.5689 0.707609 37.0888 0.089201 35.512 0.083252H35.4896C33.921 0.083252 32.4457 0.691146 31.3327 1.79819C30.2138 2.90884 29.5954 4.38887 29.5894 5.96463C29.5835 7.8377 30.4735 9.59636 31.95 10.7058V14.2632H4.80474C4.43301 14.2632 4.08244 14.4379 3.86053 14.7354L0.319693 19.4563C0.00453997 19.8754 0.00453997 20.4537 0.319693 20.8727L3.86053 25.5938C4.08354 25.8912 4.43301 26.066 4.80474 26.066H31.95V33.1488H9.52581C9.15408 33.1488 8.80351 33.3236 8.5816 33.621L5.04076 38.3421C4.72561 38.7611 4.72561 39.3382 5.04076 39.7572L8.5816 44.4783C8.80461 44.7757 9.15408 44.9505 9.52581 44.9505H31.95V69.7364C31.95 70.3891 32.4788 70.9166 33.1303 70.9166H37.8513C38.504 70.9166 39.0316 70.3878 39.0316 69.7364V55.5729H61.4581C61.8287 55.5729 62.1793 55.3971 62.4023 55.0996L65.9431 50.3786C66.2581 49.9596 66.2581 49.3825 65.9431 48.9634L62.4023 44.2423C62.1793 43.9449 61.8287 43.7702 61.4581 43.7702H39.0316V35.5081H66.1791C66.5498 35.5081 66.9003 35.3334 67.1234 35.0359L70.6642 30.3148C70.9793 29.8959 70.9793 29.3176 70.6642 28.8986L67.1234 24.1775C66.9003 23.8801 66.5498 23.7054 66.1791 23.7054H39.0316V10.7058C40.4962 9.60453 41.3851 7.86122 41.3922 6.00586C41.398 4.42899 40.789 2.94536 39.6783 1.82655ZM34.3117 43.7713C34.3117 43.7902 34.3112 43.809 34.3104 43.8277V68.556H36.671V10.0731C36.671 9.6517 36.8952 9.26115 37.2611 9.051C38.3494 8.42305 39.0269 7.25347 39.0316 5.9977C39.035 5.05224 38.6692 4.16115 38.0035 3.48962C37.3367 2.81794 36.449 2.44745 35.5025 2.44386H35.4895C34.5487 2.44386 33.6636 2.80854 32.9955 3.47191C32.3238 4.13874 31.9533 5.02623 31.9497 5.97169C31.9462 7.23811 32.6236 8.41848 33.7202 9.04989C34.0848 9.26115 34.3104 9.65059 34.3104 10.072V15.3868C34.3112 15.4056 34.3117 15.4245 34.3117 15.4434V24.8857C34.3117 24.9046 34.3112 24.9234 34.3104 24.9421V34.2724C34.3112 34.2912 34.3117 34.3101 34.3117 34.3291V43.7713ZM10.116 35.5093H31.95V42.5899H10.116L7.46044 39.049L10.116 35.5093ZM5.39493 16.6237H31.95V23.7054H5.39493L2.73937 20.1645L5.39493 16.6237ZM39.0327 33.1476H65.589L68.2445 29.6068L65.589 26.066H39.0327V33.1476ZM39.0327 53.2124H60.8679L63.5236 49.6716L60.8679 46.1308H39.0327V53.2124Z" fill="white"/>
</svg>
