<svg width="81" height="82" viewBox="0 0 81 82" fill="none" xmlns="http://www.w3.org/2000/svg">
<path fill-rule="evenodd" clip-rule="evenodd" d="M40.995 6.95298L47.6458 10.3696C48.0216 10.5633 48.2588 10.9573 48.2588 11.3889C48.2588 11.8205 48.0216 12.2145 47.6458 12.4082L41.608 15.5099V20.1679L48.2309 30.8618L50.634 26.7469C50.8303 26.4121 51.1783 26.2036 51.5585 26.1945C51.9321 26.1534 52.2967 26.3755 52.5063 26.7013L57.8075 34.8715L59.55 32.3651C59.7762 32.0393 60.1508 31.8617 60.5388 31.8913C60.9267 31.922 61.2692 32.16 61.4433 32.5176L70.7324 51.606L71.8626 50.4449C72.1807 50.1191 72.6562 50.0211 73.0707 50.1977C73.4853 50.3731 73.7547 50.7888 73.7547 51.2501V74.0279C73.7547 74.6565 73.2592 75.1667 72.6462 75.1667H49.3716L49.3675 75.1667H8.35451C7.74269 75.1667 7.24609 74.6577 7.24609 74.0279V46.6946C7.24609 46.4474 7.32364 46.2082 7.46783 46.0111L10.7932 41.4556C10.9973 41.1754 11.3154 41.0069 11.6568 41.0001C11.9881 40.991 12.3218 41.147 12.538 41.4181L15.1214 44.6623L28.5344 26.641C28.7428 26.3607 29.0665 26.1956 29.4112 26.1934H29.4156C29.7581 26.1934 30.0807 26.3562 30.2913 26.633L32.7531 29.885L39.391 20.1419V14.8056V7.97224C39.391 7.57705 39.5906 7.2115 39.9165 7.00303C40.2434 6.79576 40.6514 6.77761 40.995 6.95298ZM49.9019 72.8889H71.5378V53.9993L67.262 58.3925L70.3703 67.9734C70.4845 68.3208 70.4269 68.7036 70.2184 68.9996C70.01 69.2957 69.6752 69.4722 69.3194 69.4722L67.102 69.4722V72.8889H64.885V69.4722L62.6687 69.4722C62.3129 69.4722 61.9781 69.2969 61.7686 68.9996C61.5602 68.7023 61.5037 68.3196 61.6167 67.9734L64.6981 58.4757L60.5352 55.0539L58.3944 57.2535L60.3943 63.4179C60.5085 63.7653 60.451 64.148 60.2425 64.4441C60.034 64.7401 59.6992 64.9167 59.3434 64.9167H52.6927C52.3369 64.9167 52.0021 64.7413 51.7926 64.4441C51.5843 64.1468 51.5278 63.7641 51.6408 63.4179L52.0804 62.0627L45.9745 67.8449L49.9019 72.8889ZM54.9662 53.1679L53.531 57.5917L44.5862 66.062L41.3667 61.9271C41.1694 61.6744 40.8757 61.5206 40.562 61.5023C40.2472 61.484 39.939 61.6048 39.7162 61.8337L37.2355 64.3825L32.9308 59.2222L33.8488 59.2222C34.2046 59.2222 34.5394 59.0456 34.7479 58.7496C34.9561 58.4535 35.0138 58.0708 34.9006 57.7234L31.5752 47.4734C31.4244 47.0076 31.0011 46.6944 30.5233 46.6944C30.0456 46.6944 29.6233 47.0076 29.4714 47.4734L27.8824 52.3713L26.3185 50.4506C26.1046 50.1886 25.8087 50.0635 25.4561 50.0429C25.1236 50.0474 24.811 50.2047 24.6026 50.4711L22.2036 53.5559L16.5642 46.4741L29.4233 29.1966L35.4853 37.2049L32.9983 40.2712L34.7009 41.7301L39.3919 35.9456L44.0818 41.7289L45.7856 40.2711L40.2432 33.4379C39.822 32.9185 38.9618 32.9185 38.5407 33.4379L36.9382 35.4136L34.1773 31.7663L40.4562 22.55L47.3241 33.6383C47.5292 33.9709 47.874 34.1554 48.273 34.1656C48.6576 34.1599 49.0112 33.9516 49.2097 33.6132L51.635 29.462L56.4302 36.8527L54.0077 40.3373L55.8112 41.6607L59.0209 37.0446L59.157 36.9513L59.1226 36.8983L60.2838 35.2283L69.0797 53.3041L65.9135 56.5572L61.146 52.6383C60.7059 52.2761 60.0697 52.3115 59.6696 52.7226L57.6107 54.8379L57.0689 53.1679C56.9193 52.7021 56.4958 52.3889 56.0181 52.3889C55.5403 52.3889 55.118 52.7021 54.9662 53.1679ZM31.6332 62.6389V61.167L35.6632 65.998L34.1739 67.5282L35.7412 69.1386L40.4078 64.3439L47.0608 72.889H27.997L24.9243 63.4179C24.7735 62.9521 24.3501 62.6389 23.8724 62.6389C23.3946 62.6389 22.9723 62.9521 22.8205 63.4179L19.7478 72.889H9.46306V47.0737L11.7177 43.9851L20.7885 55.3756L18.4771 58.3479L17.1661 54.3069C17.0153 53.8411 16.5919 53.5279 16.1142 53.5279C15.6364 53.5279 15.2141 53.8411 15.0622 54.3069L11.7369 64.5569C11.6249 64.9031 11.6814 65.2857 11.8899 65.5831C12.0982 65.8803 12.433 66.0557 12.7889 66.0557H15.0043V69.4722H17.2213V66.0557H19.4397C19.7955 66.0557 20.1302 65.8791 20.3387 65.5831C20.5469 65.2868 20.6045 64.9042 20.4914 64.5569L19.3125 60.9229L25.4882 52.9812L27.0589 54.9096L26.146 57.7234C26.0341 58.0696 26.0906 58.4523 26.299 58.7496C26.5074 59.0469 26.8421 59.2222 27.1981 59.2222L29.4162 59.2222V62.6389H31.6332ZM41.608 12.9628L44.6718 11.3889L41.608 9.81497V12.9628ZM16.114 58.268L14.3261 63.7779H17.9019L16.114 58.268ZM30.5233 51.4346L28.7354 56.9445H32.3112L30.5233 51.4346ZM23.8724 67.379L22.0845 72.8889H25.6603L23.8724 67.379ZM57.1272 64.9167H54.9102V68.3334H57.1272V64.9167ZM56.0182 57.129L54.2313 62.6389H57.8061L56.0182 57.129ZM64.2073 67.1946L65.9942 61.6846L67.7821 67.1946H64.2073Z" fill="#A4A4A4"/>
</svg>
