<svg width="81" height="82" viewBox="0 0 81 82" fill="none" xmlns="http://www.w3.org/2000/svg">
<path fill-rule="evenodd" clip-rule="evenodd" d="M49.7383 8.31394C47.007 4.12957 42.0786 3.45307 41.8701 3.42679C41.4056 3.3666 40.9653 3.57712 40.7081 3.96925C40.4508 4.36138 40.4301 4.86743 40.6546 5.27968L44.229 11.8686C41.1644 10.9107 37.7112 11.5389 34.9157 13.5843C34.5389 13.8587 34.3462 14.3284 34.417 14.7982C34.4889 15.2667 34.8108 15.6538 35.251 15.798L40.9583 17.6709C40.9107 17.6951 40.8632 17.7196 40.816 17.7447C39.8763 18.2422 39.0404 18.8978 38.3262 19.6842C35.395 18.16 32.0488 18.0113 29.2237 19.2763L31.8732 12.6636C32.0451 12.2313 31.9706 11.7365 31.678 11.3795C31.3854 11.0212 30.9208 10.8596 30.4806 10.9635C30.2794 11.0099 25.5363 12.1361 23.3172 16.482C22.5738 17.9372 22.207 19.559 22.2167 21.3359C21.3887 20.6788 20.4522 20.1468 19.4271 19.7619C16.0801 18.5067 12.3002 19.0365 9.31904 21.1813C8.9411 21.4518 8.74477 21.918 8.81065 22.3851C8.87523 22.8536 9.19101 23.2432 9.62639 23.3949L16.3586 25.7351C15.9664 25.9044 15.5796 26.0985 15.2007 26.3175C12.0038 28.1641 10.0175 31.3901 10.0175 34.7362C10.0175 35.1772 10.2431 35.5857 10.6125 35.8123C10.8051 35.9301 11.021 35.989 11.2367 35.989C11.4355 35.989 11.6354 35.9389 11.8172 35.8386L17.4335 32.7225C17.3801 32.8726 17.3303 33.0244 17.2841 33.1778C15.821 38.0399 18.6168 42.7202 18.7363 42.9169C18.9606 43.2852 19.3533 43.5058 19.7702 43.5058C19.8189 43.5058 19.8665 43.5033 19.9153 43.4969C20.3846 43.4381 20.7786 43.1073 20.9273 42.6463L24.1683 32.5844C25.8333 36.3253 28.1236 42.9571 28.412 51.5843C22.3511 53.5176 17.4466 56.9179 14.7622 61.0445H3.92041V63.5501H77.0787V61.0445H66.2402C62.7837 55.6972 55.9604 51.8439 47.7758 50.3987C47.246 42.0834 48.3709 33.6977 51.047 25.845L55.2731 34.0687C55.4852 34.4796 55.901 34.7364 56.3521 34.7364H56.3839C56.8484 34.7226 57.2655 34.4407 57.4592 34.0085C57.553 33.798 59.7477 28.8056 57.7164 24.1603C57.6353 23.9749 57.5488 23.7928 57.4569 23.6142L63.2307 25.8843C63.3722 25.9406 63.5196 25.9669 63.666 25.9669C63.9342 25.9669 64.1988 25.8768 64.4158 25.7025C64.7525 25.4318 64.9268 25.0009 64.8768 24.5649C64.4866 21.2238 62.2724 18.3937 58.951 16.9932C58.5598 16.8284 58.1635 16.6888 57.7642 16.574L64.2053 13.3113C64.6126 13.1046 64.8759 12.6837 64.8858 12.2176C64.8952 11.7515 64.6539 11.3181 64.2564 11.0926C63.1394 10.4562 61.9323 10.034 60.6692 9.83987C57.1134 9.28747 53.7067 10.6128 51.3917 13.0867C51.1979 11.2996 50.6464 9.70472 49.7383 8.31394ZM17.8159 61.0445H63.1867C58.7843 55.7266 50.0333 52.2751 40.5 52.2751C38.8477 52.2772 37.1833 52.3809 35.5412 52.5839C35.5942 53.6993 35.6224 54.8492 35.6224 56.0335H33.1837C33.1837 37.8694 26.1825 28.0677 26.1118 27.9712L26.1924 27.9091L25.4045 28.2791C25.3501 28.3231 25.2917 28.3627 25.2296 28.3971L24.9183 28.5698C26.5671 31.4738 31.8079 42.0386 30.7425 57.3763L28.31 57.1972C28.3807 56.1797 28.4216 55.1832 28.4362 54.2091C23.9333 55.7565 20.2102 58.1608 17.8159 61.0445ZM40.4292 49.771C38.7449 49.7758 37.0509 49.8803 35.3774 50.0811C34.623 41.0641 32.2744 34.5518 30.4377 30.676L38.9126 33.4258C39.0334 33.4647 39.1565 33.4835 39.2797 33.4835C39.5869 33.4835 39.8881 33.3644 40.1186 33.1427C40.4405 32.8294 40.5721 32.3635 40.4624 31.9224C39.98 29.9798 39.0128 28.2868 37.6743 26.9736L44.6935 24.0248C41.5019 32.1782 40.0415 40.9475 40.4292 49.771ZM45.312 50.0417C44.5096 49.9503 43.6967 49.8815 42.8751 49.8362C42.3949 39.6069 44.5057 29.4494 49.0074 20.3124L49.2231 20.3832C49.2435 20.3896 49.264 20.3956 49.2845 20.401L49.304 20.4089L49.3224 20.416L50.3403 20.8162C46.4863 29.9961 44.7551 40.0597 45.312 50.0417ZM46.6545 19.5403C46.4635 19.9344 46.2767 20.3303 46.0941 20.7279L38.6138 23.8708C39.2796 22.1383 40.4293 20.7703 41.9341 19.9734C43.1025 19.3526 44.4232 19.1144 45.7807 19.2535L46.6545 19.5403ZM52.2033 22.7253L56.0083 30.1299C56.2254 28.678 56.2303 26.8627 55.4852 25.1714C54.903 23.8499 53.9221 22.745 52.5553 21.8664C52.4358 22.1518 52.3185 22.4382 52.2033 22.7253ZM46.2823 16.7878C46.5072 16.8169 46.7324 16.8538 46.9576 16.8985L46.5507 16.1485C45.7926 15.3502 44.8639 14.7422 43.7958 14.3585C42.1865 13.781 40.455 13.7835 38.8041 14.3334L46.2823 16.7878ZM33.4449 24.5034L36.2551 23.1838C35.9976 23.902 35.8048 24.6636 35.6821 25.4605C35.2173 25.1921 34.7269 24.9585 34.2135 24.7628C33.9597 24.666 33.7033 24.5795 33.4449 24.5034ZM49.0137 15.2581C49.1252 13.0749 48.6947 11.2235 47.7265 9.72948C46.7814 8.27387 45.4487 7.35674 44.2636 6.788L48.5493 14.6874C48.7105 14.8711 48.8654 15.0614 49.0137 15.2581ZM53.21 18.8808L52.7861 19.0955L61.7578 22.6232C61.0031 21.1913 59.7033 20.0186 58.0243 19.3109C56.4353 18.6417 54.7476 18.5087 53.21 18.8808ZM60.5654 12.3603L52.3504 16.5215C52.1767 16.5696 52.0046 16.6227 51.8341 16.6806C53.2475 13.9824 56.0231 12.2225 59.0815 12.2225C59.4852 12.2225 59.8949 12.2525 60.3069 12.3164C60.3935 12.3302 60.4801 12.344 60.5654 12.3603ZM28.736 27.4963C28.5873 27.2531 28.4587 27.0521 28.3545 26.8938L28.5083 26.8216C30.1202 26.4314 31.8076 26.5186 33.3649 27.1118C34.9548 27.7169 36.2533 28.8043 37.1288 30.2199L28.736 27.4963ZM27.0779 24.6318C27.2816 24.5643 27.4868 24.5029 27.693 24.4476L34.8566 21.0835C34.3286 20.9795 33.797 20.9281 33.2703 20.9281C32.0936 20.9281 30.9413 21.1887 29.9001 21.7149C28.9071 22.2165 28.0722 22.9152 27.4214 23.7746L27.0779 24.6318ZM25.2635 22.5734L28.4969 14.505C27.4117 15.1653 26.2217 16.175 25.4657 17.6645C24.6734 19.2266 24.4641 21.0968 24.8346 23.2487C24.9691 23.017 25.1122 22.7918 25.2635 22.5734ZM21.6048 27.5588L21.1236 27.3915C20.9032 27.3704 20.681 27.3599 20.4571 27.3599C19.1087 27.3599 17.7137 27.7419 16.3957 28.5024C14.7655 29.4444 13.5498 30.83 12.9255 32.3773L21.5812 27.5749L21.6048 27.5588ZM13.194 21.9905L21.7182 24.9546C21.9211 24.9816 22.1228 25.0151 22.3229 25.0553C21.4218 23.7218 20.1381 22.6992 18.5882 22.117C16.8471 21.4643 14.9535 21.4342 13.194 21.9905ZM19.6192 33.9007C19.1095 35.5793 19.2875 37.2857 19.6423 38.6625L22.4224 30.0334C21.0079 31.1234 20.0691 32.4175 19.6192 33.9007ZM64.8865 66.0557H30.7459V68.5613H64.8865V66.0557ZM14.8951 66.0557H28.3076V68.5613H14.8951V66.0557ZM46.5965 54.7807H44.1578V57.2864H46.5965V54.7807ZM50.2533 56.0335H52.692V58.5391H50.2533V56.0335ZM40.4994 56.0335H38.0608V58.5391H40.4994V56.0335ZM39.2802 71.0667H58.789V73.5723H39.2802V71.0667ZM36.8432 71.0667H20.9922V73.5723H36.8432V71.0667ZM33.1847 76.078H46.5971V78.5835H33.1847V76.078Z" fill="#A4A4A4"/>
</svg>
