<svg width="85" height="85" viewBox="0 0 85 85" fill="none" xmlns="http://www.w3.org/2000/svg">
<path fill-rule="evenodd" clip-rule="evenodd" d="M72.6007 25.9812L70.2759 23.6204H75.5507V25.9812H72.6007ZM74.9254 28.3419L75.4589 28.8837C75.4899 28.9149 75.5205 28.9464 75.5507 28.9781V28.3419H74.9254ZM76.7311 21.2597H67.9511L55.7151 8.83423L55.7103 8.82902L55.7021 8.82067C55.6977 8.81625 55.6933 8.81182 55.6891 8.80712C53.3862 6.50657 49.6422 6.51127 47.3487 8.80587L34.7187 21.2597H14.7626C10.5322 21.2597 7.09033 24.7016 7.09033 28.9319C7.09033 29.1306 7.09792 29.3275 7.11283 29.5224H7.09033V35.4411V35.4436V64.9488V64.9513V70.2445C7.09033 74.4748 10.5322 77.9167 14.7626 77.9167H72.0097C72.6624 77.9167 73.19 77.3891 73.19 76.7364V64.9328L76.7301 64.9328L76.7311 64.9328C76.7517 64.9328 76.7722 64.9322 76.7925 64.9312C76.8145 64.9301 76.8364 64.9284 76.8581 64.926C77.4509 64.8629 77.9115 64.3622 77.9115 63.7524V22.4401C77.9115 21.7886 77.3838 21.2597 76.7311 21.2597ZM9.53715 65.8972L9.45106 65.9133V68.1961L10.2529 67.5721C10.6577 68.0926 11.1487 68.5317 11.713 68.874L10.4878 70.8912C10.12 70.668 9.77384 70.4168 9.45106 70.1392V70.2444C9.45106 73.1729 11.8342 75.556 14.7627 75.556H70.8295V64.9328L54.3034 64.9328C49.0969 64.9328 44.8606 60.6965 44.8606 55.49C44.8606 50.2835 49.0969 46.0473 54.3034 46.0473H70.8293V36.6042H14.7626C12.7032 36.6042 10.8306 35.7885 9.45106 34.4632V35.4288H9.4511C9.44986 35.7521 9.47932 36.0756 9.53715 36.3907L9.45106 36.4066V38.688L10.2529 38.0644C10.6577 38.585 11.1487 39.0228 11.713 39.3652L10.4878 41.3825C10.12 41.1592 9.77384 40.9079 9.45106 40.6301V64.9364H9.4511C9.44986 65.2599 9.47932 65.5844 9.53715 65.8972ZM21.551 34.2437L27.535 28.3431H15.942C13.4335 28.3431 11.3252 30.0917 10.772 32.4337C11.7463 33.5426 13.1742 34.2437 14.7626 34.2437H21.551ZM9.45092 28.9321C9.45092 29.1301 9.46182 29.3256 9.48304 29.5181C10.8488 27.3931 13.2339 25.9825 15.942 25.9825V25.9824H29.9292L32.3245 23.6204H14.7626C11.8341 23.6204 9.45092 26.0036 9.45092 28.9321ZM49.0119 10.4807L24.9128 34.2437H49.0892L52.2843 31.0486L53.9536 32.7179L52.4278 34.2437H58.7414C59.2902 31.5536 61.6748 29.5234 64.5245 29.5234C67.3743 29.5234 69.7587 31.5536 70.3075 34.2437H72.0095C72.6624 34.2437 73.1899 34.7726 73.19 35.4238V36.1247L73.785 35.5324C75.1483 34.1596 75.1483 31.9205 73.7803 30.5442L54.0165 10.4747L54.0144 10.4722L54.012 10.4698L54.0084 10.4663L54.0083 10.4663L54.0035 10.4617C52.6226 9.09612 50.3881 9.10677 49.0119 10.4807ZM67.8629 34.2437C67.3753 32.8704 66.0627 31.8842 64.5245 31.8842C62.9862 31.8842 61.6737 32.8704 61.1861 34.2437H67.8629ZM73.19 46.0473V39.4541L75.4541 37.2003L75.4882 37.1658C75.5092 37.1443 75.5301 37.1227 75.5507 37.101V46.0473H73.19ZM75.5497 48.408H54.3034C50.3976 48.408 47.2213 51.5843 47.2213 55.49C47.2213 59.3958 50.3976 62.5721 54.3034 62.5721L70.8293 62.572L75.5497 62.5721V48.408ZM54.3032 50.7686C51.6994 50.7686 49.5817 52.8861 49.5817 55.49C49.5817 58.094 51.6992 60.2115 54.3032 60.2115C56.907 60.2115 59.0247 58.094 59.0247 55.49C59.0247 52.8861 56.907 50.7686 54.3032 50.7686ZM54.3032 57.8508C53.0012 57.8508 51.9424 56.792 51.9424 55.49C51.9424 54.1881 53.0012 53.1293 54.3032 53.1293C55.6051 53.1293 56.6639 54.1881 56.6639 55.49C56.6639 56.792 55.605 57.8508 54.3032 57.8508ZM50.7056 15.7105L40.0825 26.3336L41.7518 28.0028L52.3749 17.3797L50.7056 15.7105ZM48.3469 25.1476L54.2477 19.2468L55.917 20.9161L50.0162 26.8168L48.3469 25.1476ZM25.2995 40.1454H22.9034V42.5061H25.2995V40.1454ZM32.489 40.1454H34.8852V42.5061H32.489V40.1454ZM30.0934 40.1454H27.6972V42.5061H30.0934V40.1454ZM20.5091 40.1454H18.113V42.5061H20.5091V40.1454ZM13.1119 42.3822L13.5403 40.0604C13.764 40.1015 13.9906 40.1151 14.2188 40.1288L14.2189 40.1288C14.3182 40.1347 14.4178 40.1407 14.5176 40.149L15.7168 40.1454V42.5062L14.5199 42.5098C14.5165 42.5109 14.5118 42.5109 14.5082 42.5109C14.042 42.5109 13.5721 42.4672 13.1119 42.3822ZM49.2613 40.1454H46.8651V42.5061H49.2613V40.1454ZM37.2812 40.1454H39.6773V42.5061H37.2812V40.1454ZM63.6375 40.1454H61.2426V42.5061H63.6375V40.1454ZM66.0348 40.1454H68.4309V42.5061H66.0348V40.1454ZM58.8468 40.1454H56.4506V42.5061H58.8468V40.1454ZM51.6585 40.1454H54.0534V42.5061H51.6585V40.1454ZM44.4695 40.1454H42.0746V42.5061H44.4695V40.1454ZM37.2812 69.6542H39.6773V72.0149H37.2812V69.6542ZM34.8852 69.6542H32.489V72.0149H34.8852V69.6542ZM27.6972 69.6542H30.0934V72.0149H27.6972V69.6542ZM13.1136 71.891L13.5397 69.5693C13.862 69.6282 14.1901 69.6577 14.517 69.6578L15.7162 69.6542V72.015L14.517 72.0186C14.0484 72.0186 13.5763 71.976 13.1136 71.891ZM20.5091 69.6542H18.113V72.0149H20.5091V69.6542ZM22.9051 69.6542H25.3012V72.0149H22.9051V69.6542ZM63.6375 69.6542H61.2426V72.0149H63.6375V69.6542ZM56.4506 69.6542H58.8468V72.0149H56.4506V69.6542ZM68.4309 69.6542H66.0348V72.0149H68.4309V69.6542ZM42.0746 69.6542H44.4707V72.0149H42.0746V69.6542ZM49.2613 69.6542H46.8651V72.0149H49.2613V69.6542ZM51.6585 69.6542H54.0534V72.0149H51.6585V69.6542ZM59.3718 23.9646L54.6504 28.6861L56.3196 30.3554L61.0411 25.6339L59.3718 23.9646Z" fill="#B2B8BC"/>
</svg>
