<svg width="81" height="82" viewBox="0 0 81 82" fill="none" xmlns="http://www.w3.org/2000/svg">
<path fill-rule="evenodd" clip-rule="evenodd" d="M45.9277 11.3896L45.6564 9.11146H49.0367V6.83337H44.2935H36.7085H31.964V9.11146H35.3458L35.0744 11.3896H31.964V13.6677H34.8031L34.5317 15.9457H29.5253V9.11144H27.0864V15.9457H24.6477V9.11144H22.2087V15.9457H18.5505C17.8773 15.9457 17.3311 16.4559 17.3311 17.0847V34.4399L8.35774 37.6627C7.85778 37.8426 7.54314 38.3028 7.57843 38.8017C8.38932 50.1898 12.5734 61.1189 19.6793 70.4032L20.5806 71.5859C20.4234 71.6809 20.269 71.7818 20.118 71.8886C18.2376 73.2247 15.6085 73.2224 13.7255 71.8863C10.9805 69.9488 7.14638 69.9499 4.40137 71.8863L5.87211 73.7042C7.75136 72.3772 10.3768 72.3772 12.2523 73.7019C15.0022 75.6542 18.8436 75.6542 21.591 73.7042C23.469 72.3761 26.0933 72.3772 27.9712 73.7019C29.347 74.6781 30.9946 75.1667 32.6432 75.1667C34.2896 75.1667 35.9371 74.6781 37.3101 73.7042C39.1893 72.3761 41.8136 72.3772 43.6916 73.7019C46.4379 75.6542 50.2791 75.6532 53.0303 73.7042C54.9095 72.3761 57.5325 72.3784 59.4093 73.7019C62.1568 75.6542 65.9982 75.6532 68.748 73.7042C70.6284 72.3749 73.2527 72.3772 75.1282 73.7042L76.6001 71.8863C73.8553 69.9476 70.02 69.9476 67.275 71.8886C65.3933 73.2235 62.7666 73.2235 60.8825 71.8863C60.732 71.7801 60.5782 71.6796 60.4215 71.585L61.3207 70.4055C68.4278 61.12 72.613 50.191 73.4227 38.8028C73.4569 38.305 73.1411 37.8437 72.6436 37.6638L63.6708 34.4413V17.0847C63.6708 16.4559 63.1256 15.9457 62.4514 15.9457H58.7913V9.11144H56.3523V15.9457H53.9152V9.11144H51.4763V15.9457H46.4704L46.1991 13.6677H49.0377V11.3896H45.9277ZM22.8642 70.6561C25.0962 70.1268 27.5341 70.5379 29.4445 71.8863C31.3275 73.2224 33.9554 73.2247 35.837 71.8886C36.8698 71.1589 38.0562 70.7038 39.2805 70.5227V68.3416H21.1068C21.2902 68.5892 21.4757 68.8356 21.6633 69.0808L22.8642 70.6561ZM19.501 66.0636H39.2805V35.949C38.9268 36.0169 38.5774 36.1148 38.2361 36.2425L11.1121 46.3783C12.6116 53.3482 15.4485 60.0151 19.501 66.0636ZM10.6698 44.0898C10.4085 42.5668 10.2105 41.0313 10.0771 39.4863L35.686 30.2885C36.8463 29.8695 38.0506 29.6064 39.2805 29.5033V33.6363C38.6181 33.7264 37.9635 33.8904 37.3289 34.1283L10.6698 44.0898ZM41.7195 35.9485V66.0636H61.5001C65.5537 60.0144 68.3902 53.3474 69.8893 46.3774L42.7689 36.2425C42.4259 36.1145 42.0748 36.0165 41.7195 35.9485ZM70.3315 44.0892L43.6749 34.1283C43.0389 33.8905 42.3829 33.7265 41.7195 33.6363V29.5043C42.9499 29.6074 44.1561 29.8707 45.3189 30.2908L70.9241 39.4863C70.7907 41.0311 70.5927 42.5664 70.3315 44.0892ZM41.7195 70.5221V68.3416H59.8941C59.7104 68.5896 59.5246 68.8364 59.3366 69.0819L58.1363 70.6556C55.9055 70.1274 53.4681 70.5373 51.5572 71.8886C49.6756 73.2235 47.0489 73.2235 45.1647 71.8863C44.1317 71.1575 42.9446 70.7026 41.7195 70.5221ZM41.7195 27.2184V25.0581H39.2805V27.2174C37.7488 27.3255 36.2484 27.6425 34.8079 28.163L27.0865 30.9362V29.6141H24.6475V31.8121L19.77 33.5639V31.8922H22.2088V29.6141H19.77V27.3362H22.2088V25.0581H19.77V22.78H22.2088V20.5019H19.77V18.2238H61.2318V33.5654L56.3541 31.8136V29.6141H53.9151V30.9377L46.1957 28.1654C44.7527 27.6436 43.2518 27.3264 41.7195 27.2184ZM44.0152 15.9457H36.986L37.8 9.1116H43.2023L44.0152 15.9457ZM41.7195 20.5019H39.2805V22.78H41.7195V20.5019ZM34.4029 20.5019H36.8418V22.78H34.4029V20.5019ZM31.9642 20.5019H29.5252V22.78H31.9642V20.5019ZM24.6475 20.5019H27.0865V22.78H24.6475V20.5019ZM46.5988 20.5019H44.1598V22.78H46.5988V20.5019ZM49.0358 20.5019H51.4748V22.78H49.0358V20.5019ZM56.3541 20.5019H53.9151V22.78H56.3541V20.5019ZM61.2317 20.5019H58.7928V22.78H61.2317V20.5019ZM36.8418 25.0581H34.4029V27.3362H36.8418V25.0581ZM29.5252 25.0581H31.9642V27.3362H29.5252V25.0581ZM27.0865 25.0581H24.6475V27.3362H27.0865V25.0581ZM44.1598 25.0581H46.5988V27.3362H44.1598V25.0581ZM51.4748 25.0581H49.0358V27.3362H51.4748V25.0581ZM53.9151 25.0581H56.3541V27.3362H53.9151V25.0581ZM58.7928 25.0581H61.2317V27.3362H58.7928V25.0581ZM58.7928 29.6141H61.2317V31.8922H58.7928V29.6141Z" fill="#A4A4A4"/>
</svg>
