<svg width="85" height="85" viewBox="0 0 85 85" fill="none" xmlns="http://www.w3.org/2000/svg">
<path fill-rule="evenodd" clip-rule="evenodd" d="M18.8894 7.08331H33.0561C35.0087 7.08331 36.5977 8.67236 36.5977 10.625C36.5977 12.5776 35.0087 14.1666 33.0561 14.1666H31.8755V22.4305H38.9583C41.8574 22.4305 44.2753 24.5317 44.7689 27.2911C45.1791 27.2006 45.6052 27.1528 46.0422 27.1528H56.6672C59.922 27.1528 62.5701 29.8008 62.5701 33.0557V36.5971H66.1116H70.8337H72.0138C75.2686 36.5971 77.9166 39.2452 77.9167 42.5V66.1111C77.9167 68.0547 76.9725 69.7818 75.5188 70.858C76.2707 71.6067 76.7367 72.6422 76.7367 73.7847C76.7367 76.0633 74.8831 77.9167 72.6047 77.9167C70.3263 77.9167 68.4727 76.0634 68.4727 73.7849C68.4727 73.1515 68.6159 72.5509 68.8717 72.0139H43.2816C43.5373 72.5509 43.6805 73.1514 43.6805 73.7847C43.6805 76.0633 41.827 77.9167 39.5486 77.9167C37.27 77.9167 35.4166 76.0634 35.4166 73.7849C35.4166 73.1515 35.5598 72.5509 35.8156 72.0139H33.836C34.0918 72.5509 34.235 73.1514 34.235 73.7847C34.235 76.0633 32.3814 77.9167 30.103 77.9167C27.8246 77.9167 25.971 76.0634 25.971 73.7849C25.971 73.1515 26.1142 72.551 26.3699 72.014H16.1277C16.3835 72.551 16.5266 73.1514 16.5266 73.7847C16.5266 76.0633 14.6731 77.9167 12.3946 77.9167C10.1162 77.9167 8.26265 76.0634 8.26265 73.7849C8.26265 72.6423 8.72876 71.6065 9.48082 70.8579C8.02726 69.7816 7.08325 68.0545 7.08325 66.1112V44.8611V37.7778V28.3333C7.08325 25.0786 9.7312 22.4305 12.9861 22.4305H20.0688V14.1666H18.8894C16.9368 14.1666 15.3477 12.5776 15.3477 10.625C15.3477 8.67236 16.9368 7.08331 18.8894 7.08331ZM69.6532 38.9583H67.2921V53.3237C67.5135 53.3765 67.7352 53.4389 67.9564 53.511C68.5652 53.7096 69.1333 53.97 69.6532 54.28V38.9583ZM72.0144 56.4614V38.9583C73.9668 38.9586 75.5556 40.5475 75.5556 42.5V66.1111H75.5554C75.5554 68.0637 73.9664 69.6528 72.0138 69.6528H72.0133V62.8786C72.3804 62.4176 72.6681 61.8944 72.8569 61.3167C73.3913 59.6793 73.0267 57.9274 72.0144 56.4614ZM64.9311 53.1099V38.9583L37.7777 38.9583H37.7771V53.9208L40.7337 55.6455C41.272 55.9607 41.4728 56.6372 41.1952 57.1944L38.8341 61.9166C38.6865 62.2106 38.4232 62.4301 38.108 62.5223C37.9995 62.5541 37.8886 62.5694 37.7777 62.5695V69.6528H64.9293V64.9096C64.718 64.8583 64.5066 64.7984 64.2955 64.7297C62.5447 64.1571 61.0678 63.0628 60.1387 61.6461C59.1553 60.1469 58.8921 58.4705 59.3973 56.9239C60.1288 54.6817 62.349 53.2596 64.9311 53.1099ZM35.483 61.3888L33.0549 59.9319V69.6528H35.4166V61.3888H35.483ZM30.6938 58.5152L27.1527 56.3906V66.1111C27.1527 68.0635 28.7415 69.6524 30.6938 69.6528V58.5152ZM27.1527 53.637L37.2911 59.7197L38.5874 57.1283L27.1527 50.4586V53.637ZM27.1527 47.7233V42.5C27.1527 40.5475 28.7415 38.9586 30.6938 38.9583V49.7889L27.1527 47.7233ZM33.0549 51.1662V38.9583H35.416V52.5435L33.0549 51.1662ZM69.6521 69.6528H67.2905V65.1326C68.1277 65.0874 68.9277 64.9083 69.6521 64.6108V69.6528ZM42.4999 28.3333V28.3366C41.0674 29.4147 40.1394 31.1288 40.1394 33.0557V36.5971H37.7777V29.5138H35.4166V36.5971H31.8743H30.6944L30.6944 29.5138H28.3333V37.0901C26.2503 38.0027 24.7916 40.0842 24.7916 42.5V66.1111C24.7916 67.4388 25.2322 68.6656 25.975 69.6529H12.9861C11.0335 69.6529 9.44441 68.0638 9.44441 66.1112V45.6279L14.1666 43.5291V63.75H16.5277V42.5H16.4822L19.3694 41.2168C19.9489 40.9593 20.2205 40.29 19.9856 39.6997L17.6244 33.7969C17.5064 33.5018 17.2738 33.2669 16.9799 33.1453C16.8348 33.0849 16.6811 33.0545 16.5277 33.0543V29.5138H14.1666V33.9638L9.44441 35.9876V28.3333C9.44441 26.3807 11.0335 24.7917 12.9861 24.7917H38.9583C40.9109 24.7917 42.4999 26.3807 42.4999 28.3333ZM44.8605 36.5971H42.5005V33.0557C42.5005 31.103 44.0896 29.514 46.0422 29.514H56.6672C58.6199 29.514 60.2089 31.103 60.2089 33.0557V36.5971H57.8466V33.0555C57.8465 32.4039 57.3188 31.875 56.666 31.875H46.041C45.3881 31.875 44.8605 32.4039 44.8605 33.0555V36.5971ZM55.4855 36.5971V34.236H47.2216V36.5971H55.4855ZM39.5603 72.0139H39.5368C38.5659 72.0203 37.7777 72.8123 37.7777 73.7847C37.7777 74.761 38.5722 75.5556 39.5486 75.5556C40.5249 75.5556 41.3194 74.761 41.3194 73.7847C41.3194 72.8123 40.5312 72.0203 39.5603 72.0139ZM9.44441 43.0442V38.5557L15.8808 35.7979L17.3707 39.5214L9.44441 43.0442ZM29.5144 22.4305V14.1666H22.4299V22.4305H29.5144ZM18.8894 11.8055H33.0561C33.7066 11.8055 34.2367 11.2755 34.2366 10.625C34.2366 9.97448 33.7066 9.44447 33.0561 9.44447H18.8894C18.2389 9.44447 17.7089 9.97448 17.7089 10.625C17.7089 11.2755 18.2389 11.8055 18.8894 11.8055ZM12.3946 75.5556C11.4183 75.5556 10.6238 74.761 10.6238 73.7847C10.6238 72.8084 11.4183 72.0139 12.3946 72.0139C13.371 72.0139 14.1655 72.8084 14.1655 73.7847C14.1655 74.761 13.371 75.5556 12.3946 75.5556ZM21.2499 29.5138H23.6111V63.75H21.2499V29.5138ZM50.5438 41.8141L56.4466 50.0779C56.7041 50.4381 56.7382 50.9104 56.5361 51.3045C56.3342 51.6977 55.9293 51.9444 55.4866 51.9444H43.6811C43.2384 51.9444 42.8334 51.6977 42.6304 51.3045C42.4285 50.9102 42.4628 50.4381 42.7201 50.0779L48.623 41.8141C49.0657 41.193 50.1011 41.193 50.5438 41.8141ZM49.5841 44.5318L45.9752 49.5833H53.1919L49.5841 44.5318ZM70.6103 60.5849C70.0059 62.4406 67.4996 63.2919 65.0275 62.4856C63.7832 62.0783 62.7478 61.3204 62.1115 60.3512C61.5295 59.4634 61.3618 58.5072 61.6394 57.6572H61.6406C62.0904 56.2772 63.5921 55.4531 65.3487 55.4531C65.9544 55.4531 66.5895 55.5499 67.2211 55.7564C69.6954 56.5651 71.2147 58.7302 70.6103 60.5849ZM28.3321 73.7847C28.3321 74.761 29.1267 75.5556 30.103 75.5556C31.0793 75.5556 31.8738 74.761 31.8738 73.7847C31.8738 72.8084 31.0793 72.0139 30.103 72.0139C29.1267 72.0139 28.3321 72.8084 28.3321 73.7847ZM72.6047 75.5556C71.6284 75.5556 70.8339 74.761 70.8339 73.7847C70.8339 72.8084 71.6284 72.0139 72.6047 72.0139C73.581 72.0139 74.3755 72.8084 74.3755 73.7847C74.3755 74.761 73.581 75.5556 72.6047 75.5556Z" fill="#B2B8BC"/>
</svg>
