<svg width="26" height="42" fill="none" xmlns="http://www.w3.org/2000/svg"><path fill-rule="evenodd" clip-rule="evenodd" d="M12.275.6a.676.676 0 0 0-.626-.433H1.176A.685.685 0 0 0 .5.86v10.417c0 .278.162.53.412.64a.662.662 0 0 0 .734-.141l3.802-3.782 1.125 4.048-.666 8.903c-.02.259-.029.518-.028.777.013 4.646 3.211 8.53 7.458 9.475v6.469h-2.702c-1.863 0-3.378 1.557-3.378 3.472 0 .384.302.694.675.694h14.865c.374 0 .676-.31.676-.694 0-1.915-1.516-3.472-3.379-3.472h-2.702v-6.47c4.549-1.008 7.799-5.352 7.43-10.25l-.666-8.904 1.318-4.741a.712.712 0 0 0-.11-.61.671.671 0 0 0-.54-.275H7.874l-.413-.424L12.12 1.36a.708.708 0 0 0 .156-.76zM7.314 7.807H6.8l1.106 3.975a.707.707 0 0 1 .026.191h3.435L7.314 7.806zm-.059 13.247l.576-7.692H22.9l.575 7.692c.345 4.582-3.002 8.596-7.459 8.95a6.97 6.97 0 0 1-.649.025h-.028c-4.46 0-8.095-3.723-8.108-8.309 0-.221.007-.444.024-.666zm15.568-9.272a.732.732 0 0 0-.025.191h-9.519L9.225 7.806h14.703l-1.105 3.975zM1.851 4.066V9.64l1.712-1.703-1.712-3.871zm2.743 2.846L7.07 4.448 2.712 2.657l1.882 4.255zm-.922-5.356L8.135 3.39l1.844-1.834H3.672zm12.368 36.11v-6.272a8.847 8.847 0 0 1-.675.023h-.027a9.31 9.31 0 0 1-.65-.023v6.273h1.352zm-7.317 2.778c.28-.808 1.03-1.389 1.912-1.389h9.46c.88 0 1.632.581 1.91 1.39H8.724zM19.436 16.14c.186.005.361.09.485.232 2.297 2.64 2.297 6.62 0 9.259a.658.658 0 0 1-.053.054 6.635 6.635 0 0 1-4.504 1.77c-1.61 0-3.22-.59-4.505-1.77a.704.704 0 0 1-.028-1.008l8.109-8.334a.617.617 0 0 1 .496-.202zm-7.11 8.965a5.284 5.284 0 0 0 3.568.935l-.896-3.681-2.672 2.746zm6.614-.429a5.373 5.373 0 0 1-1.728 1.056l-.92-3.778 3.676.945a5.584 5.584 0 0 1-1.028 1.777zm.417-6.797a5.664 5.664 0 0 1 .91 3.666l-3.581-.92 2.671-2.746zM9.284 19.61h1.351V21H9.284v-1.389zm3.378-2.778h-1.35v1.39h1.35v-1.39zM21.447.167h1.351v1.389h1.35v1.388h-1.35v1.39h-1.35v-1.39h-1.354V1.556h1.353V.166zm-4.73 2.777h1.351v1.39h-1.351v-1.39z" fill="#000"/></svg>