<svg width="71" height="71" viewBox="0 0 71 71" fill="none" xmlns="http://www.w3.org/2000/svg">
<path fill-rule="evenodd" clip-rule="evenodd" d="M11.8894 0.083313H26.0561C28.0087 0.083313 29.5978 1.67236 29.5978 3.62498C29.5978 5.5776 28.0087 7.16665 26.0561 7.16665H24.8756V15.4305H31.9583C34.8575 15.4305 37.2754 17.5317 37.769 20.2911C38.1792 20.2006 38.6053 20.1528 39.0423 20.1528H49.6673C52.922 20.1528 55.5701 22.8008 55.5701 26.0557V29.5971H59.1116H63.8338H65.0138C68.2687 29.5971 70.9166 32.2452 70.9168 35.5V59.1111C70.9168 61.0547 69.9726 62.7818 68.5188 63.858C69.2708 64.6067 69.7368 65.6422 69.7368 66.7847C69.7368 69.0633 67.8832 70.9167 65.6048 70.9167C63.3263 70.9167 61.4728 69.0634 61.4728 66.7849C61.4728 66.1515 61.616 65.5509 61.8718 65.0139H36.2816C36.5374 65.5509 36.6806 66.1514 36.6806 66.7847C36.6806 69.0633 34.827 70.9167 32.5486 70.9167C30.2701 70.9167 28.4166 69.0634 28.4166 66.7849C28.4166 66.1515 28.5599 65.5509 28.8156 65.0139H26.8361C27.0918 65.5509 27.235 66.1514 27.235 66.7847C27.235 69.0633 25.3815 70.9167 23.103 70.9167C20.8246 70.9167 18.971 69.0634 18.971 66.7849C18.971 66.1515 19.1143 65.551 19.37 65.014H9.12781C9.38352 65.551 9.52671 66.1514 9.52671 66.7847C9.52671 69.0633 7.67314 70.9167 5.39471 70.9167C3.11628 70.9167 1.26271 69.0634 1.26271 66.7849C1.26271 65.6423 1.72882 64.6065 2.48088 63.8579C1.02732 62.7816 0.083313 61.0545 0.083313 59.1112V37.8611V30.7778V21.3333C0.083313 18.0786 2.73126 15.4305 5.98614 15.4305H13.0688V7.16665H11.8894C9.93682 7.16665 8.34778 5.5776 8.34778 3.62498C8.34778 1.67236 9.93682 0.083313 11.8894 0.083313ZM62.6533 31.9583H60.2921V46.3237C60.5136 46.3765 60.7352 46.4389 60.9565 46.511C61.5653 46.7096 62.1334 46.97 62.6533 47.28V31.9583ZM65.0145 49.4614V31.9583C66.9669 31.9586 68.5556 33.5475 68.5556 35.5V59.1111H68.5555C68.5555 61.0637 66.9664 62.6528 65.0138 62.6528H65.0133V55.8786C65.3805 55.4176 65.6682 54.8944 65.857 54.3167C66.3913 52.6793 66.0267 50.9274 65.0145 49.4614ZM57.9311 46.1099V31.9583L30.7778 31.9583H30.7772V46.9208L33.7338 48.6455C34.2721 48.9607 34.4728 49.6372 34.1953 50.1944L31.8341 54.9166C31.6865 55.2106 31.4233 55.4301 31.1081 55.5223C30.9996 55.5541 30.8887 55.5694 30.7778 55.5695V62.6528H57.9294V57.9096C57.7181 57.8583 57.5066 57.7984 57.2955 57.7297C55.5448 57.1571 54.0679 56.0628 53.1388 54.6461C52.1554 53.1469 51.8921 51.4705 52.3974 49.9239C53.1289 47.6817 55.3491 46.2596 57.9311 46.1099ZM28.4831 54.3888L26.055 52.9319V62.6528H28.4166V54.3888H28.4831ZM23.6938 51.5152L20.1528 49.3906V59.1111C20.1528 61.0635 21.7415 62.6524 23.6938 62.6528V51.5152ZM20.1528 46.637L30.2912 52.7197L31.5875 50.1283L20.1528 43.4586V46.637ZM20.1528 40.7233V35.5C20.1528 33.5475 21.7415 31.9586 23.6938 31.9583V42.7889L20.1528 40.7233ZM26.055 44.1662V31.9583H28.416V45.5435L26.055 44.1662ZM62.6522 62.6528H60.2905V58.1326C61.1277 58.0874 61.9278 57.9083 62.6522 57.6108V62.6528ZM35.5 21.3333V21.3366C34.0675 22.4147 33.1394 24.1288 33.1394 26.0557V29.5971H30.7778V22.5138H28.4166V29.5971H24.8744H23.6945L23.6945 22.5138H21.3333V30.0901C19.2504 31.0027 17.7916 33.0842 17.7916 35.5V59.1111C17.7916 60.4388 18.2323 61.6656 18.9751 62.6529H5.98614C4.03352 62.6529 2.44447 61.0638 2.44447 59.1112V38.6279L7.16665 36.5291V56.75H9.52779V35.5H9.48226L12.3694 34.2168C12.949 33.9593 13.2205 33.29 12.9856 32.6997L10.6245 26.7969C10.5065 26.5018 10.2739 26.2669 9.97992 26.1453C9.83485 26.0849 9.68118 26.0545 9.52779 26.0543V22.5138H7.16665V26.9638L2.44447 28.9876V21.3333C2.44447 19.3807 4.03352 17.7917 5.98614 17.7917H31.9583C33.9109 17.7917 35.5 19.3807 35.5 21.3333ZM37.8605 29.5971H35.5006V26.0557C35.5006 24.103 37.0897 22.514 39.0423 22.514H49.6673C51.6199 22.514 53.209 24.103 53.209 26.0557V29.5971H50.8467V26.0555C50.8465 25.4039 50.3189 24.875 49.666 24.875H39.041C38.3882 24.875 37.8605 25.4039 37.8605 26.0555V29.5971ZM48.4855 29.5971V27.236H40.2217V29.5971H48.4855ZM32.5603 65.0139H32.5369C31.566 65.0203 30.7778 65.8123 30.7778 66.7847C30.7778 67.761 31.5723 68.5556 32.5486 68.5556C33.5249 68.5556 34.3194 67.761 34.3194 66.7847C34.3194 65.8123 33.5313 65.0203 32.5603 65.0139ZM2.44447 36.0442V31.5557L8.8809 28.7979L10.3707 32.5214L2.44447 36.0442ZM22.5144 15.4305V7.16665H15.43V15.4305H22.5144ZM11.8894 4.80549H26.0561C26.7066 4.80549 27.2368 4.27548 27.2366 3.62498C27.2366 2.97448 26.7066 2.44447 26.0561 2.44447H11.8894C11.2389 2.44447 10.7089 2.97448 10.7089 3.62498C10.7089 4.27548 11.2389 4.80549 11.8894 4.80549ZM5.39471 68.5556C4.4184 68.5556 3.62388 67.761 3.62388 66.7847C3.62388 65.8084 4.4184 65.0139 5.39471 65.0139C6.37102 65.0139 7.16555 65.8084 7.16555 66.7847C7.16555 67.761 6.37102 68.5556 5.39471 68.5556ZM14.25 22.5138H16.6111V56.75H14.25V22.5138ZM43.5438 34.8141L49.4467 43.0779C49.7041 43.4381 49.7383 43.9104 49.5362 44.3045C49.3343 44.6977 48.9294 44.9444 48.4867 44.9444H36.6812C36.2384 44.9444 35.8335 44.6977 35.6304 44.3045C35.4286 43.9102 35.4629 43.4381 35.7202 43.0779L41.623 34.8141C42.0657 34.193 43.1011 34.193 43.5438 34.8141ZM42.5841 37.5318L38.9752 42.5833H46.1919L42.5841 37.5318ZM63.6104 53.5849C63.0059 55.4406 60.4996 56.2919 58.0275 55.4856C56.7832 55.0783 55.7479 54.3204 55.1116 53.3512C54.5296 52.4634 54.3619 51.5072 54.6394 50.6572H54.6407C55.0904 49.2772 56.5922 48.4531 58.3488 48.4531C58.9544 48.4531 59.5896 48.5499 60.2211 48.7564C62.6955 49.5651 64.2148 51.7302 63.6104 53.5849ZM21.3322 66.7847C21.3322 67.761 22.1267 68.5556 23.103 68.5556C24.0793 68.5556 24.8739 67.761 24.8739 66.7847C24.8739 65.8084 24.0793 65.0139 23.103 65.0139C22.1267 65.0139 21.3322 65.8084 21.3322 66.7847ZM65.6048 68.5556C64.6285 68.5556 63.8339 67.761 63.8339 66.7847C63.8339 65.8084 64.6285 65.0139 65.6048 65.0139C66.5811 65.0139 67.3756 65.8084 67.3756 66.7847C67.3756 67.761 66.5811 68.5556 65.6048 68.5556Z" fill="#B2B8BC"/>
</svg>
